M48
; DRILL file {KiCad 9.0.6} date 2025-11-23T15:01:52-0500
; FORMAT={-:-/ absolute / metric / decimal}
; #@! TF.CreationDate,2025-11-23T15:01:52-05:00
; #@! TF.GenerationSoftware,Kicad,Pcbnew,9.0.6
; #@! TF.FileFunction,Plated,1,2,PTH
FMAT,2
METRIC
; #@! TA.AperFunction,Plated,PTH,ViaDrill
T1C0.300
; #@! TA.AperFunction,Plated,PTH,ComponentDrill
T2C0.900
; #@! TA.AperFunction,Plated,PTH,ComponentDrill
T3C1.020
; #@! TA.AperFunction,Plated,PTH,ComponentDrill
T4C1.100
%
G90
G05
T1
X114.076Y-92.7
X123.721Y-83.73
T2
X119.57Y-49.505
X119.57Y-52.045
X119.57Y-54.585
X119.57Y-57.125
X119.57Y-59.665
X119.57Y-62.205
X119.57Y-64.745
X119.57Y-67.285
X119.57Y-69.825
X119.57Y-72.365
X119.57Y-74.905
X119.57Y-77.445
X119.57Y-79.985
X119.57Y-82.525
X119.57Y-85.065
X142.43Y-49.505
X142.43Y-52.045
X142.43Y-54.585
X142.43Y-57.125
X142.43Y-59.665
X142.43Y-62.205
X142.43Y-64.745
X142.43Y-67.285
X142.43Y-69.825
X142.43Y-72.365
X142.43Y-74.905
X142.43Y-77.445
X142.43Y-79.985
X142.43Y-82.525
X142.43Y-85.065
T3
X110.18Y-49.0
X110.18Y-52.0
X116.0Y-60.65
X116.0Y-63.65
X116.0Y-66.65
X116.0Y-69.65
X116.0Y-72.65
X116.0Y-75.65
X116.0Y-78.65
X116.0Y-88.15
X116.0Y-91.15
X116.0Y-94.15
X116.0Y-97.15
X146.18Y-61.25
X146.18Y-64.25
X146.18Y-67.25
X146.18Y-76.25
X146.18Y-79.25
X146.18Y-82.25
X152.54Y-49.25
X152.54Y-52.25
X152.54Y-103.25
X152.54Y-106.25
X152.72Y-91.25
X152.72Y-94.25
T4
X121.34Y-103.5
X123.92Y-95.0
X126.46Y-95.0
X129.0Y-95.0
X131.5Y-103.5
X136.42Y-95.0
X138.96Y-95.0
X141.5Y-95.0
M30
