%TF.GenerationSoftware,KiCad,Pcbnew,9.0.6*%
%TF.CreationDate,2025-11-23T15:01:17-05:00*%
%TF.ProjectId,prototype,70726f74-6f74-4797-9065-2e6b69636164,rev?*%
%TF.SameCoordinates,Original*%
%TF.FileFunction,Copper,L2,Bot*%
%TF.FilePolarity,Positive*%
%FSLAX46Y46*%
G04 Gerber Fmt 4.6, Leading zero omitted, Abs format (unit mm)*
G04 Created by KiCad (PCBNEW 9.0.6) date 2025-11-23 15:01:17*
%MOMM*%
%LPD*%
G01*
G04 APERTURE LIST*
G04 Aperture macros list*
%AMRoundRect*
0 Rectangle with rounded corners*
0 $1 Rounding radius*
0 $2 $3 $4 $5 $6 $7 $8 $9 X,Y pos of 4 corners*
0 Add a 4 corners polygon primitive as box body*
4,1,4,$2,$3,$4,$5,$6,$7,$8,$9,$2,$3,0*
0 Add four circle primitives for the rounded corners*
1,1,$1+$1,$2,$3*
1,1,$1+$1,$4,$5*
1,1,$1+$1,$6,$7*
1,1,$1+$1,$8,$9*
0 Add four rect primitives between the rounded corners*
20,1,$1+$1,$2,$3,$4,$5,0*
20,1,$1+$1,$4,$5,$6,$7,0*
20,1,$1+$1,$6,$7,$8,$9,0*
20,1,$1+$1,$8,$9,$2,$3,0*%
G04 Aperture macros list end*
%TA.AperFunction,ComponentPad*%
%ADD10R,1.500000X1.500000*%
%TD*%
%TA.AperFunction,ComponentPad*%
%ADD11C,1.500000*%
%TD*%
%TA.AperFunction,ComponentPad*%
%ADD12RoundRect,0.250001X-0.759999X0.499999X-0.759999X-0.499999X0.759999X-0.499999X0.759999X0.499999X0*%
%TD*%
%TA.AperFunction,ComponentPad*%
%ADD13O,2.020000X1.500000*%
%TD*%
%TA.AperFunction,ComponentPad*%
%ADD14RoundRect,0.250001X0.759999X-0.499999X0.759999X0.499999X-0.759999X0.499999X-0.759999X-0.499999X0*%
%TD*%
%TA.AperFunction,ComponentPad*%
%ADD15R,1.905000X2.000000*%
%TD*%
%TA.AperFunction,ComponentPad*%
%ADD16O,1.905000X2.000000*%
%TD*%
%TA.AperFunction,ComponentPad*%
%ADD17RoundRect,0.249999X0.850001X0.850001X-0.850001X0.850001X-0.850001X-0.850001X0.850001X-0.850001X0*%
%TD*%
%TA.AperFunction,ComponentPad*%
%ADD18C,2.200000*%
%TD*%
%TA.AperFunction,ViaPad*%
%ADD19C,0.600000*%
%TD*%
%TA.AperFunction,Conductor*%
%ADD20C,0.200000*%
%TD*%
G04 APERTURE END LIST*
D10*
%TO.P,esp32,1,3V3*%
%TO.N,VCC*%
X119570000Y-49505000D03*
D11*
%TO.P,esp32,2,GND*%
%TO.N,GND*%
X119570000Y-52045000D03*
%TO.P,esp32,3,D15*%
%TO.N,unconnected-(U1-D15-Pad3)*%
X119570000Y-54585000D03*
%TO.P,esp32,4,D2*%
%TO.N,/WiFi_BUTTON*%
X119570000Y-57125000D03*
%TO.P,esp32,5,D4*%
%TO.N,unconnected-(U1-D4-Pad5)*%
X119570000Y-59665000D03*
%TO.P,esp32,6,RX2*%
%TO.N,/LCD_DC*%
X119570000Y-62205000D03*
%TO.P,esp32,7,TX2*%
%TO.N,/LCD_RST*%
X119570000Y-64745000D03*
%TO.P,esp32,8,D5*%
%TO.N,/LCD_CS*%
X119570000Y-67285000D03*
%TO.P,esp32,9,D18*%
%TO.N,/LCD_CLK*%
X119570000Y-69825000D03*
%TO.P,esp32,10,D19*%
%TO.N,unconnected-(U1-D19-Pad10)*%
X119570000Y-72365000D03*
%TO.P,esp32,11,D21*%
%TO.N,/DHT_SDA*%
X119570000Y-74905000D03*
%TO.P,esp32,12,RX0*%
%TO.N,unconnected-(U1-RX0-Pad12)*%
X119570000Y-77445000D03*
%TO.P,esp32,13,TX0*%
%TO.N,unconnected-(U1-TX0-Pad13)*%
X119570000Y-79985000D03*
%TO.P,esp32,14,D22*%
%TO.N,/DHT_SCL*%
X119570000Y-82525000D03*
%TO.P,esp32,15,D23*%
%TO.N,/LCD_DIN*%
X119570000Y-85065000D03*
%TO.P,esp32,16,EN*%
%TO.N,unconnected-(U1-EN-Pad16)*%
X142430000Y-85065000D03*
%TO.P,esp32,17,VP*%
%TO.N,unconnected-(U1-VP-Pad17)*%
X142430000Y-82525000D03*
%TO.P,esp32,18,VN*%
%TO.N,unconnected-(U1-VN-Pad18)*%
X142430000Y-79985000D03*
%TO.P,esp32,19,D34*%
%TO.N,unconnected-(U1-D34-Pad19)*%
X142430000Y-77445000D03*
%TO.P,esp32,20,D35*%
%TO.N,unconnected-(U1-D35-Pad20)*%
X142430000Y-74905000D03*
%TO.P,esp32,21,D32*%
%TO.N,/PUMP*%
X142430000Y-72365000D03*
%TO.P,esp32,22,D33*%
%TO.N,unconnected-(U1-D33-Pad22)*%
X142430000Y-69825000D03*
%TO.P,esp32,23,D25*%
%TO.N,/LED_PIN*%
X142430000Y-67285000D03*
%TO.P,esp32,24,D26*%
%TO.N,/FAN*%
X142430000Y-64745000D03*
%TO.P,esp32,25,D27*%
%TO.N,unconnected-(U1-D27-Pad25)*%
X142430000Y-62205000D03*
%TO.P,esp32,26,D14*%
%TO.N,/WATER_LEV*%
X142430000Y-59665000D03*
%TO.P,esp32,27,D12*%
%TO.N,unconnected-(U1-D12-Pad27)*%
X142430000Y-57125000D03*
%TO.P,esp32,28,D13*%
%TO.N,unconnected-(U1-D13-Pad28)*%
X142430000Y-54585000D03*
%TO.P,esp32,29,GND*%
%TO.N,GND*%
X142430000Y-52045000D03*
%TO.P,esp32,30,VIN*%
%TO.N,+3V3*%
X142430000Y-49505000D03*
%TD*%
D12*
%TO.P,Perilstatic_Pump,1,VCC*%
%TO.N,VCC*%
X152540000Y-103250000D03*
D13*
%TO.P,Perilstatic_Pump,2,GND*%
%TO.N,/PUMP_NEG*%
X152540000Y-106250000D03*
%TD*%
D14*
%TO.P,ST7789V,1,VCC*%
%TO.N,VCC*%
X116000000Y-78650000D03*
D13*
%TO.P,ST7789V,2,GND*%
%TO.N,GND*%
X116000000Y-75650000D03*
%TO.P,ST7789V,3,DIN*%
%TO.N,/LCD_DIN*%
X116000000Y-72650000D03*
%TO.P,ST7789V,4,SCK*%
%TO.N,/LCD_CLK*%
X116000000Y-69650000D03*
%TO.P,ST7789V,5,CS*%
%TO.N,/LCD_CS*%
X116000000Y-66650000D03*
%TO.P,ST7789V,6,RST*%
%TO.N,/LCD_RST*%
X116000000Y-63650000D03*
%TO.P,ST7789V,7,DC*%
%TO.N,/LCD_DC*%
X116000000Y-60650000D03*
%TD*%
D14*
%TO.P,DHT20,1,VDD*%
%TO.N,VCC*%
X116000000Y-97150000D03*
D13*
%TO.P,DHT20,2,SDA*%
%TO.N,/DHT_SDA*%
X116000000Y-94150000D03*
%TO.P,DHT20,3,GND*%
%TO.N,GND*%
X116000000Y-91150000D03*
%TO.P,DHT20,4,SCL*%
%TO.N,/DHT_SCL*%
X116000000Y-88150000D03*
%TD*%
D15*
%TO.P,Q1,1,G*%
%TO.N,Net-(Q1-G)*%
X129000000Y-95000000D03*
D16*
%TO.P,Q1,2,D*%
%TO.N,/PUMP_NEG*%
X126460000Y-95000000D03*
%TO.P,Q1,3,S*%
%TO.N,GND*%
X123920000Y-95000000D03*
%TD*%
D12*
%TO.P,LED_STRIP,1,VCC*%
%TO.N,VCC*%
X146180000Y-76250000D03*
D13*
%TO.P,LED_STRIP,2,DIN*%
%TO.N,/LED_PIN*%
X146180000Y-79250000D03*
%TO.P,LED_STRIP,3,GND*%
%TO.N,GND*%
X146180000Y-82250000D03*
%TD*%
D15*
%TO.P,Q3,1,G*%
%TO.N,Net-(Q3-G)*%
X141500000Y-95000000D03*
D16*
%TO.P,Q3,2,D*%
%TO.N,/FAN_NEG*%
X138960000Y-95000000D03*
%TO.P,Q3,3,S*%
%TO.N,GND*%
X136420000Y-95000000D03*
%TD*%
D14*
%TO.P,WiFi_Button,1,1*%
%TO.N,/WiFi_BUTTON*%
X110180000Y-52000000D03*
D13*
%TO.P,WiFi_Button,2,2*%
%TO.N,GND*%
X110180000Y-49000000D03*
%TD*%
D12*
%TO.P,Fan,1,+*%
%TO.N,VCC*%
X152720000Y-91250000D03*
D13*
%TO.P,Fan,2,-*%
%TO.N,/FAN_NEG*%
X152720000Y-94250000D03*
%TD*%
D12*
%TO.P,External_Power,1,Pin_1*%
%TO.N,+3V3*%
X152540000Y-49250000D03*
D13*
%TO.P,External_Power,2,Pin_2*%
%TO.N,GND*%
X152540000Y-52250000D03*
%TD*%
D17*
%TO.P,D1,1,K*%
%TO.N,VCC*%
X131500000Y-103500000D03*
D18*
%TO.P,D1,2,A*%
%TO.N,/PUMP_NEG*%
X121340000Y-103500000D03*
%TD*%
D12*
%TO.P,Water_Level_Sensor,1,VCC*%
%TO.N,VCC*%
X146180000Y-61250000D03*
D13*
%TO.P,Water_Level_Sensor,2,GND*%
%TO.N,GND*%
X146180000Y-64250000D03*
%TO.P,Water_Level_Sensor,3,DOUT*%
%TO.N,/WATER_LEV*%
X146180000Y-67250000D03*
%TD*%
D19*
%TO.N,/PUMP*%
X123721100Y-83730000D03*
%TO.N,GND*%
X114076500Y-92700000D03*
%TD*%
D20*
%TO.N,/WATER_LEV*%
X144437500Y-64425800D02*
X146210000Y-66198300D01*
X144437500Y-61672500D02*
X144437500Y-64425800D01*
X142430000Y-59665000D02*
X144437500Y-61672500D01*
X146210000Y-67250000D02*
X146210000Y-66198300D01*
%TO.N,/WiFi_BUTTON*%
X114445000Y-52000000D02*
X119570000Y-57125000D01*
X110180000Y-52000000D02*
X114445000Y-52000000D01*
%TO.N,/LCD_CS*%
X118935000Y-66650000D02*
X119570000Y-67285000D01*
X116000000Y-66650000D02*
X118935000Y-66650000D01*
%TO.N,/LCD_CLK*%
X117486700Y-69825000D02*
X117311700Y-69650000D01*
X119570000Y-69825000D02*
X117486700Y-69825000D01*
X116000000Y-69650000D02*
X117311700Y-69650000D01*
%TO.N,/LCD_DIN*%
X118080200Y-83575200D02*
X119570000Y-85065000D01*
X118080200Y-75781900D02*
X118080200Y-83575200D01*
X116000000Y-73701700D02*
X118080200Y-75781900D01*
X116000000Y-72650000D02*
X116000000Y-73701700D01*
%TO.N,/LCD_RST*%
X116043300Y-64745000D02*
X116000000Y-64701700D01*
X119570000Y-64745000D02*
X116043300Y-64745000D01*
X116000000Y-63650000D02*
X116000000Y-64701700D01*
%TO.N,/LCD_DC*%
X119066700Y-61701700D02*
X119570000Y-62205000D01*
X116000000Y-61701700D02*
X119066700Y-61701700D01*
X116000000Y-60650000D02*
X116000000Y-61701700D01*
%TO.N,/PUMP*%
X131065000Y-83730000D02*
X123721100Y-83730000D01*
X142430000Y-72365000D02*
X131065000Y-83730000D01*
%TO.N,/PUMP_NEG*%
X124090000Y-106250000D02*
X121340000Y-103500000D01*
X152540000Y-106250000D02*
X124090000Y-106250000D01*
%TO.N,/FAN_NEG*%
X140214200Y-93904700D02*
X140214200Y-95000000D01*
X140422800Y-93696100D02*
X140214200Y-93904700D01*
X150884400Y-93696100D02*
X140422800Y-93696100D01*
X151438300Y-94250000D02*
X150884400Y-93696100D01*
X152750000Y-94250000D02*
X151438300Y-94250000D01*
X138960000Y-95000000D02*
X140214200Y-95000000D01*
%TO.N,+3V3*%
X152285000Y-49505000D02*
X152540000Y-49250000D01*
X142430000Y-49505000D02*
X152285000Y-49505000D01*
%TO.N,VCC*%
X152290000Y-103500000D02*
X152540000Y-103250000D01*
X131500000Y-103500000D02*
X152290000Y-103500000D01*
X125150000Y-97150000D02*
X131500000Y-103500000D01*
X116000000Y-97150000D02*
X125150000Y-97150000D01*
%TO.N,GND*%
X116525000Y-49000000D02*
X110180000Y-49000000D01*
X119570000Y-52045000D02*
X116525000Y-49000000D01*
X152540000Y-52250000D02*
X151228300Y-52250000D01*
X123920000Y-95000000D02*
X122665800Y-95000000D01*
X118815800Y-91150000D02*
X122665800Y-95000000D01*
X116000000Y-91150000D02*
X118815800Y-91150000D01*
X136420000Y-95000000D02*
X135165800Y-95000000D01*
X123967500Y-93698300D02*
X135165800Y-93698300D01*
X122665800Y-95000000D02*
X123967500Y-93698300D01*
X146210000Y-82250000D02*
X146210000Y-83301700D01*
X135165800Y-93698300D02*
X135165800Y-95000000D01*
X135813400Y-93698300D02*
X146210000Y-83301700D01*
X135165800Y-93698300D02*
X135813400Y-93698300D01*
X151023300Y-52045000D02*
X142430000Y-52045000D01*
X151228300Y-52250000D02*
X151023300Y-52045000D01*
X142430000Y-52045000D02*
X119570000Y-52045000D01*
X114688300Y-92088200D02*
X114076500Y-92700000D01*
X114688300Y-91150000D02*
X114688300Y-92088200D01*
X116000000Y-91150000D02*
X114688300Y-91150000D01*
%TD*%
M02*
