%TF.GenerationSoftware,KiCad,Pcbnew,9.0.6*%
%TF.CreationDate,2025-11-23T15:01:17-05:00*%
%TF.ProjectId,prototype,70726f74-6f74-4797-9065-2e6b69636164,rev?*%
%TF.SameCoordinates,Original*%
%TF.FileFunction,Legend,Top*%
%TF.FilePolarity,Positive*%
%FSLAX46Y46*%
G04 Gerber Fmt 4.6, Leading zero omitted, Abs format (unit mm)*
G04 Created by KiCad (PCBNEW 9.0.6) date 2025-11-23 15:01:17*
%MOMM*%
%LPD*%
G01*
G04 APERTURE LIST*
%ADD10C,0.100000*%
%ADD11C,0.125000*%
%ADD12C,0.150000*%
%ADD13C,0.120000*%
G04 APERTURE END LIST*
D10*
X113000000Y-108500000D02*
X147000000Y-108500000D01*
X147000000Y-113000000D01*
X113000000Y-113000000D01*
X113000000Y-108500000D01*
D11*
X114296521Y-112126357D02*
X114296521Y-109126357D01*
X114296521Y-109126357D02*
X115296521Y-111269214D01*
X115296521Y-111269214D02*
X116296521Y-109126357D01*
X116296521Y-109126357D02*
X116296521Y-112126357D01*
X117725092Y-112126357D02*
X117725092Y-110126357D01*
X117725092Y-109126357D02*
X117582235Y-109269214D01*
X117582235Y-109269214D02*
X117725092Y-109412071D01*
X117725092Y-109412071D02*
X117867949Y-109269214D01*
X117867949Y-109269214D02*
X117725092Y-109126357D01*
X117725092Y-109126357D02*
X117725092Y-109412071D01*
X120439378Y-111983500D02*
X120153663Y-112126357D01*
X120153663Y-112126357D02*
X119582235Y-112126357D01*
X119582235Y-112126357D02*
X119296520Y-111983500D01*
X119296520Y-111983500D02*
X119153663Y-111840642D01*
X119153663Y-111840642D02*
X119010806Y-111554928D01*
X119010806Y-111554928D02*
X119010806Y-110697785D01*
X119010806Y-110697785D02*
X119153663Y-110412071D01*
X119153663Y-110412071D02*
X119296520Y-110269214D01*
X119296520Y-110269214D02*
X119582235Y-110126357D01*
X119582235Y-110126357D02*
X120153663Y-110126357D01*
X120153663Y-110126357D02*
X120439378Y-110269214D01*
X121725092Y-112126357D02*
X121725092Y-110126357D01*
X121725092Y-110697785D02*
X121867949Y-110412071D01*
X121867949Y-110412071D02*
X122010807Y-110269214D01*
X122010807Y-110269214D02*
X122296521Y-110126357D01*
X122296521Y-110126357D02*
X122582235Y-110126357D01*
X124010807Y-112126357D02*
X123725092Y-111983500D01*
X123725092Y-111983500D02*
X123582235Y-111840642D01*
X123582235Y-111840642D02*
X123439378Y-111554928D01*
X123439378Y-111554928D02*
X123439378Y-110697785D01*
X123439378Y-110697785D02*
X123582235Y-110412071D01*
X123582235Y-110412071D02*
X123725092Y-110269214D01*
X123725092Y-110269214D02*
X124010807Y-110126357D01*
X124010807Y-110126357D02*
X124439378Y-110126357D01*
X124439378Y-110126357D02*
X124725092Y-110269214D01*
X124725092Y-110269214D02*
X124867950Y-110412071D01*
X124867950Y-110412071D02*
X125010807Y-110697785D01*
X125010807Y-110697785D02*
X125010807Y-111554928D01*
X125010807Y-111554928D02*
X124867950Y-111840642D01*
X124867950Y-111840642D02*
X124725092Y-111983500D01*
X124725092Y-111983500D02*
X124439378Y-112126357D01*
X124439378Y-112126357D02*
X124010807Y-112126357D01*
X127867950Y-109269214D02*
X127582236Y-109126357D01*
X127582236Y-109126357D02*
X127153664Y-109126357D01*
X127153664Y-109126357D02*
X126725093Y-109269214D01*
X126725093Y-109269214D02*
X126439378Y-109554928D01*
X126439378Y-109554928D02*
X126296521Y-109840642D01*
X126296521Y-109840642D02*
X126153664Y-110412071D01*
X126153664Y-110412071D02*
X126153664Y-110840642D01*
X126153664Y-110840642D02*
X126296521Y-111412071D01*
X126296521Y-111412071D02*
X126439378Y-111697785D01*
X126439378Y-111697785D02*
X126725093Y-111983500D01*
X126725093Y-111983500D02*
X127153664Y-112126357D01*
X127153664Y-112126357D02*
X127439378Y-112126357D01*
X127439378Y-112126357D02*
X127867950Y-111983500D01*
X127867950Y-111983500D02*
X128010807Y-111840642D01*
X128010807Y-111840642D02*
X128010807Y-110840642D01*
X128010807Y-110840642D02*
X127439378Y-110840642D01*
X129296521Y-112126357D02*
X129296521Y-110126357D01*
X129296521Y-110697785D02*
X129439378Y-110412071D01*
X129439378Y-110412071D02*
X129582236Y-110269214D01*
X129582236Y-110269214D02*
X129867950Y-110126357D01*
X129867950Y-110126357D02*
X130153664Y-110126357D01*
X131582236Y-112126357D02*
X131296521Y-111983500D01*
X131296521Y-111983500D02*
X131153664Y-111840642D01*
X131153664Y-111840642D02*
X131010807Y-111554928D01*
X131010807Y-111554928D02*
X131010807Y-110697785D01*
X131010807Y-110697785D02*
X131153664Y-110412071D01*
X131153664Y-110412071D02*
X131296521Y-110269214D01*
X131296521Y-110269214D02*
X131582236Y-110126357D01*
X131582236Y-110126357D02*
X132010807Y-110126357D01*
X132010807Y-110126357D02*
X132296521Y-110269214D01*
X132296521Y-110269214D02*
X132439379Y-110412071D01*
X132439379Y-110412071D02*
X132582236Y-110697785D01*
X132582236Y-110697785D02*
X132582236Y-111554928D01*
X132582236Y-111554928D02*
X132439379Y-111840642D01*
X132439379Y-111840642D02*
X132296521Y-111983500D01*
X132296521Y-111983500D02*
X132010807Y-112126357D01*
X132010807Y-112126357D02*
X131582236Y-112126357D01*
X133582236Y-110126357D02*
X134153665Y-112126357D01*
X134153665Y-112126357D02*
X134725093Y-110697785D01*
X134725093Y-110697785D02*
X135296522Y-112126357D01*
X135296522Y-112126357D02*
X135867950Y-110126357D01*
X140725093Y-112126357D02*
X139296521Y-112126357D01*
X139296521Y-112126357D02*
X139296521Y-109126357D01*
X141296521Y-110126357D02*
X142439378Y-110126357D01*
X141725092Y-109126357D02*
X141725092Y-111697785D01*
X141725092Y-111697785D02*
X141867949Y-111983500D01*
X141867949Y-111983500D02*
X142153664Y-112126357D01*
X142153664Y-112126357D02*
X142439378Y-112126357D01*
X144725093Y-112126357D02*
X144725093Y-109126357D01*
X144725093Y-111983500D02*
X144439378Y-112126357D01*
X144439378Y-112126357D02*
X143867950Y-112126357D01*
X143867950Y-112126357D02*
X143582235Y-111983500D01*
X143582235Y-111983500D02*
X143439378Y-111840642D01*
X143439378Y-111840642D02*
X143296521Y-111554928D01*
X143296521Y-111554928D02*
X143296521Y-110697785D01*
X143296521Y-110697785D02*
X143439378Y-110412071D01*
X143439378Y-110412071D02*
X143582235Y-110269214D01*
X143582235Y-110269214D02*
X143867950Y-110126357D01*
X143867950Y-110126357D02*
X144439378Y-110126357D01*
X144439378Y-110126357D02*
X144725093Y-110269214D01*
X146153664Y-111840642D02*
X146296521Y-111983500D01*
X146296521Y-111983500D02*
X146153664Y-112126357D01*
X146153664Y-112126357D02*
X146010807Y-111983500D01*
X146010807Y-111983500D02*
X146153664Y-111840642D01*
X146153664Y-111840642D02*
X146153664Y-112126357D01*
D12*
X129380952Y-67657200D02*
X129285714Y-67704819D01*
X129285714Y-67704819D02*
X129095238Y-67704819D01*
X129095238Y-67704819D02*
X129000000Y-67657200D01*
X129000000Y-67657200D02*
X128952381Y-67561961D01*
X128952381Y-67561961D02*
X128952381Y-67181009D01*
X128952381Y-67181009D02*
X129000000Y-67085771D01*
X129000000Y-67085771D02*
X129095238Y-67038152D01*
X129095238Y-67038152D02*
X129285714Y-67038152D01*
X129285714Y-67038152D02*
X129380952Y-67085771D01*
X129380952Y-67085771D02*
X129428571Y-67181009D01*
X129428571Y-67181009D02*
X129428571Y-67276247D01*
X129428571Y-67276247D02*
X128952381Y-67371485D01*
X129809524Y-67657200D02*
X129904762Y-67704819D01*
X129904762Y-67704819D02*
X130095238Y-67704819D01*
X130095238Y-67704819D02*
X130190476Y-67657200D01*
X130190476Y-67657200D02*
X130238095Y-67561961D01*
X130238095Y-67561961D02*
X130238095Y-67514342D01*
X130238095Y-67514342D02*
X130190476Y-67419104D01*
X130190476Y-67419104D02*
X130095238Y-67371485D01*
X130095238Y-67371485D02*
X129952381Y-67371485D01*
X129952381Y-67371485D02*
X129857143Y-67323866D01*
X129857143Y-67323866D02*
X129809524Y-67228628D01*
X129809524Y-67228628D02*
X129809524Y-67181009D01*
X129809524Y-67181009D02*
X129857143Y-67085771D01*
X129857143Y-67085771D02*
X129952381Y-67038152D01*
X129952381Y-67038152D02*
X130095238Y-67038152D01*
X130095238Y-67038152D02*
X130190476Y-67085771D01*
X130666667Y-67038152D02*
X130666667Y-68038152D01*
X130666667Y-67085771D02*
X130761905Y-67038152D01*
X130761905Y-67038152D02*
X130952381Y-67038152D01*
X130952381Y-67038152D02*
X131047619Y-67085771D01*
X131047619Y-67085771D02*
X131095238Y-67133390D01*
X131095238Y-67133390D02*
X131142857Y-67228628D01*
X131142857Y-67228628D02*
X131142857Y-67514342D01*
X131142857Y-67514342D02*
X131095238Y-67609580D01*
X131095238Y-67609580D02*
X131047619Y-67657200D01*
X131047619Y-67657200D02*
X130952381Y-67704819D01*
X130952381Y-67704819D02*
X130761905Y-67704819D01*
X130761905Y-67704819D02*
X130666667Y-67657200D01*
X131476191Y-66704819D02*
X132095238Y-66704819D01*
X132095238Y-66704819D02*
X131761905Y-67085771D01*
X131761905Y-67085771D02*
X131904762Y-67085771D01*
X131904762Y-67085771D02*
X132000000Y-67133390D01*
X132000000Y-67133390D02*
X132047619Y-67181009D01*
X132047619Y-67181009D02*
X132095238Y-67276247D01*
X132095238Y-67276247D02*
X132095238Y-67514342D01*
X132095238Y-67514342D02*
X132047619Y-67609580D01*
X132047619Y-67609580D02*
X132000000Y-67657200D01*
X132000000Y-67657200D02*
X131904762Y-67704819D01*
X131904762Y-67704819D02*
X131619048Y-67704819D01*
X131619048Y-67704819D02*
X131523810Y-67657200D01*
X131523810Y-67657200D02*
X131476191Y-67609580D01*
X132476191Y-66800057D02*
X132523810Y-66752438D01*
X132523810Y-66752438D02*
X132619048Y-66704819D01*
X132619048Y-66704819D02*
X132857143Y-66704819D01*
X132857143Y-66704819D02*
X132952381Y-66752438D01*
X132952381Y-66752438D02*
X133000000Y-66800057D01*
X133000000Y-66800057D02*
X133047619Y-66895295D01*
X133047619Y-66895295D02*
X133047619Y-66990533D01*
X133047619Y-66990533D02*
X133000000Y-67133390D01*
X133000000Y-67133390D02*
X132428572Y-67704819D01*
X132428572Y-67704819D02*
X133047619Y-67704819D01*
X156454819Y-110797619D02*
X155454819Y-110797619D01*
X155454819Y-110797619D02*
X155454819Y-110416667D01*
X155454819Y-110416667D02*
X155502438Y-110321429D01*
X155502438Y-110321429D02*
X155550057Y-110273810D01*
X155550057Y-110273810D02*
X155645295Y-110226191D01*
X155645295Y-110226191D02*
X155788152Y-110226191D01*
X155788152Y-110226191D02*
X155883390Y-110273810D01*
X155883390Y-110273810D02*
X155931009Y-110321429D01*
X155931009Y-110321429D02*
X155978628Y-110416667D01*
X155978628Y-110416667D02*
X155978628Y-110797619D01*
X156407200Y-109416667D02*
X156454819Y-109511905D01*
X156454819Y-109511905D02*
X156454819Y-109702381D01*
X156454819Y-109702381D02*
X156407200Y-109797619D01*
X156407200Y-109797619D02*
X156311961Y-109845238D01*
X156311961Y-109845238D02*
X155931009Y-109845238D01*
X155931009Y-109845238D02*
X155835771Y-109797619D01*
X155835771Y-109797619D02*
X155788152Y-109702381D01*
X155788152Y-109702381D02*
X155788152Y-109511905D01*
X155788152Y-109511905D02*
X155835771Y-109416667D01*
X155835771Y-109416667D02*
X155931009Y-109369048D01*
X155931009Y-109369048D02*
X156026247Y-109369048D01*
X156026247Y-109369048D02*
X156121485Y-109845238D01*
X156454819Y-108940476D02*
X155788152Y-108940476D01*
X155978628Y-108940476D02*
X155883390Y-108892857D01*
X155883390Y-108892857D02*
X155835771Y-108845238D01*
X155835771Y-108845238D02*
X155788152Y-108750000D01*
X155788152Y-108750000D02*
X155788152Y-108654762D01*
X156454819Y-108321428D02*
X155788152Y-108321428D01*
X155454819Y-108321428D02*
X155502438Y-108369047D01*
X155502438Y-108369047D02*
X155550057Y-108321428D01*
X155550057Y-108321428D02*
X155502438Y-108273809D01*
X155502438Y-108273809D02*
X155454819Y-108321428D01*
X155454819Y-108321428D02*
X155550057Y-108321428D01*
X156454819Y-107702381D02*
X156407200Y-107797619D01*
X156407200Y-107797619D02*
X156311961Y-107845238D01*
X156311961Y-107845238D02*
X155454819Y-107845238D01*
X156407200Y-107369047D02*
X156454819Y-107273809D01*
X156454819Y-107273809D02*
X156454819Y-107083333D01*
X156454819Y-107083333D02*
X156407200Y-106988095D01*
X156407200Y-106988095D02*
X156311961Y-106940476D01*
X156311961Y-106940476D02*
X156264342Y-106940476D01*
X156264342Y-106940476D02*
X156169104Y-106988095D01*
X156169104Y-106988095D02*
X156121485Y-107083333D01*
X156121485Y-107083333D02*
X156121485Y-107226190D01*
X156121485Y-107226190D02*
X156073866Y-107321428D01*
X156073866Y-107321428D02*
X155978628Y-107369047D01*
X155978628Y-107369047D02*
X155931009Y-107369047D01*
X155931009Y-107369047D02*
X155835771Y-107321428D01*
X155835771Y-107321428D02*
X155788152Y-107226190D01*
X155788152Y-107226190D02*
X155788152Y-107083333D01*
X155788152Y-107083333D02*
X155835771Y-106988095D01*
X155788152Y-106654761D02*
X155788152Y-106273809D01*
X155454819Y-106511904D02*
X156311961Y-106511904D01*
X156311961Y-106511904D02*
X156407200Y-106464285D01*
X156407200Y-106464285D02*
X156454819Y-106369047D01*
X156454819Y-106369047D02*
X156454819Y-106273809D01*
X156454819Y-105511904D02*
X155931009Y-105511904D01*
X155931009Y-105511904D02*
X155835771Y-105559523D01*
X155835771Y-105559523D02*
X155788152Y-105654761D01*
X155788152Y-105654761D02*
X155788152Y-105845237D01*
X155788152Y-105845237D02*
X155835771Y-105940475D01*
X156407200Y-105511904D02*
X156454819Y-105607142D01*
X156454819Y-105607142D02*
X156454819Y-105845237D01*
X156454819Y-105845237D02*
X156407200Y-105940475D01*
X156407200Y-105940475D02*
X156311961Y-105988094D01*
X156311961Y-105988094D02*
X156216723Y-105988094D01*
X156216723Y-105988094D02*
X156121485Y-105940475D01*
X156121485Y-105940475D02*
X156073866Y-105845237D01*
X156073866Y-105845237D02*
X156073866Y-105607142D01*
X156073866Y-105607142D02*
X156026247Y-105511904D01*
X155788152Y-105178570D02*
X155788152Y-104797618D01*
X155454819Y-105035713D02*
X156311961Y-105035713D01*
X156311961Y-105035713D02*
X156407200Y-104988094D01*
X156407200Y-104988094D02*
X156454819Y-104892856D01*
X156454819Y-104892856D02*
X156454819Y-104797618D01*
X156454819Y-104464284D02*
X155788152Y-104464284D01*
X155454819Y-104464284D02*
X155502438Y-104511903D01*
X155502438Y-104511903D02*
X155550057Y-104464284D01*
X155550057Y-104464284D02*
X155502438Y-104416665D01*
X155502438Y-104416665D02*
X155454819Y-104464284D01*
X155454819Y-104464284D02*
X155550057Y-104464284D01*
X156407200Y-103559523D02*
X156454819Y-103654761D01*
X156454819Y-103654761D02*
X156454819Y-103845237D01*
X156454819Y-103845237D02*
X156407200Y-103940475D01*
X156407200Y-103940475D02*
X156359580Y-103988094D01*
X156359580Y-103988094D02*
X156264342Y-104035713D01*
X156264342Y-104035713D02*
X155978628Y-104035713D01*
X155978628Y-104035713D02*
X155883390Y-103988094D01*
X155883390Y-103988094D02*
X155835771Y-103940475D01*
X155835771Y-103940475D02*
X155788152Y-103845237D01*
X155788152Y-103845237D02*
X155788152Y-103654761D01*
X155788152Y-103654761D02*
X155835771Y-103559523D01*
X156550057Y-103369047D02*
X156550057Y-102607142D01*
X156454819Y-102369046D02*
X155454819Y-102369046D01*
X155454819Y-102369046D02*
X155454819Y-101988094D01*
X155454819Y-101988094D02*
X155502438Y-101892856D01*
X155502438Y-101892856D02*
X155550057Y-101845237D01*
X155550057Y-101845237D02*
X155645295Y-101797618D01*
X155645295Y-101797618D02*
X155788152Y-101797618D01*
X155788152Y-101797618D02*
X155883390Y-101845237D01*
X155883390Y-101845237D02*
X155931009Y-101892856D01*
X155931009Y-101892856D02*
X155978628Y-101988094D01*
X155978628Y-101988094D02*
X155978628Y-102369046D01*
X155788152Y-100940475D02*
X156454819Y-100940475D01*
X155788152Y-101369046D02*
X156311961Y-101369046D01*
X156311961Y-101369046D02*
X156407200Y-101321427D01*
X156407200Y-101321427D02*
X156454819Y-101226189D01*
X156454819Y-101226189D02*
X156454819Y-101083332D01*
X156454819Y-101083332D02*
X156407200Y-100988094D01*
X156407200Y-100988094D02*
X156359580Y-100940475D01*
X156454819Y-100464284D02*
X155788152Y-100464284D01*
X155883390Y-100464284D02*
X155835771Y-100416665D01*
X155835771Y-100416665D02*
X155788152Y-100321427D01*
X155788152Y-100321427D02*
X155788152Y-100178570D01*
X155788152Y-100178570D02*
X155835771Y-100083332D01*
X155835771Y-100083332D02*
X155931009Y-100035713D01*
X155931009Y-100035713D02*
X156454819Y-100035713D01*
X155931009Y-100035713D02*
X155835771Y-99988094D01*
X155835771Y-99988094D02*
X155788152Y-99892856D01*
X155788152Y-99892856D02*
X155788152Y-99749999D01*
X155788152Y-99749999D02*
X155835771Y-99654760D01*
X155835771Y-99654760D02*
X155931009Y-99607141D01*
X155931009Y-99607141D02*
X156454819Y-99607141D01*
X155788152Y-99130951D02*
X156788152Y-99130951D01*
X155835771Y-99130951D02*
X155788152Y-99035713D01*
X155788152Y-99035713D02*
X155788152Y-98845237D01*
X155788152Y-98845237D02*
X155835771Y-98749999D01*
X155835771Y-98749999D02*
X155883390Y-98702380D01*
X155883390Y-98702380D02*
X155978628Y-98654761D01*
X155978628Y-98654761D02*
X156264342Y-98654761D01*
X156264342Y-98654761D02*
X156359580Y-98702380D01*
X156359580Y-98702380D02*
X156407200Y-98749999D01*
X156407200Y-98749999D02*
X156454819Y-98845237D01*
X156454819Y-98845237D02*
X156454819Y-99035713D01*
X156454819Y-99035713D02*
X156407200Y-99130951D01*
X122824819Y-89906666D02*
X122348628Y-90239999D01*
X122824819Y-90478094D02*
X121824819Y-90478094D01*
X121824819Y-90478094D02*
X121824819Y-90097142D01*
X121824819Y-90097142D02*
X121872438Y-90001904D01*
X121872438Y-90001904D02*
X121920057Y-89954285D01*
X121920057Y-89954285D02*
X122015295Y-89906666D01*
X122015295Y-89906666D02*
X122158152Y-89906666D01*
X122158152Y-89906666D02*
X122253390Y-89954285D01*
X122253390Y-89954285D02*
X122301009Y-90001904D01*
X122301009Y-90001904D02*
X122348628Y-90097142D01*
X122348628Y-90097142D02*
X122348628Y-90478094D01*
X122824819Y-88954285D02*
X122824819Y-89525713D01*
X122824819Y-89239999D02*
X121824819Y-89239999D01*
X121824819Y-89239999D02*
X121967676Y-89335237D01*
X121967676Y-89335237D02*
X122062914Y-89430475D01*
X122062914Y-89430475D02*
X122110533Y-89525713D01*
X106287200Y-72649999D02*
X106334819Y-72507142D01*
X106334819Y-72507142D02*
X106334819Y-72269047D01*
X106334819Y-72269047D02*
X106287200Y-72173809D01*
X106287200Y-72173809D02*
X106239580Y-72126190D01*
X106239580Y-72126190D02*
X106144342Y-72078571D01*
X106144342Y-72078571D02*
X106049104Y-72078571D01*
X106049104Y-72078571D02*
X105953866Y-72126190D01*
X105953866Y-72126190D02*
X105906247Y-72173809D01*
X105906247Y-72173809D02*
X105858628Y-72269047D01*
X105858628Y-72269047D02*
X105811009Y-72459523D01*
X105811009Y-72459523D02*
X105763390Y-72554761D01*
X105763390Y-72554761D02*
X105715771Y-72602380D01*
X105715771Y-72602380D02*
X105620533Y-72649999D01*
X105620533Y-72649999D02*
X105525295Y-72649999D01*
X105525295Y-72649999D02*
X105430057Y-72602380D01*
X105430057Y-72602380D02*
X105382438Y-72554761D01*
X105382438Y-72554761D02*
X105334819Y-72459523D01*
X105334819Y-72459523D02*
X105334819Y-72221428D01*
X105334819Y-72221428D02*
X105382438Y-72078571D01*
X105334819Y-71792856D02*
X105334819Y-71221428D01*
X106334819Y-71507142D02*
X105334819Y-71507142D01*
X105334819Y-70983332D02*
X105334819Y-70316666D01*
X105334819Y-70316666D02*
X106334819Y-70745237D01*
X105334819Y-70030951D02*
X105334819Y-69364285D01*
X105334819Y-69364285D02*
X106334819Y-69792856D01*
X105763390Y-68840475D02*
X105715771Y-68935713D01*
X105715771Y-68935713D02*
X105668152Y-68983332D01*
X105668152Y-68983332D02*
X105572914Y-69030951D01*
X105572914Y-69030951D02*
X105525295Y-69030951D01*
X105525295Y-69030951D02*
X105430057Y-68983332D01*
X105430057Y-68983332D02*
X105382438Y-68935713D01*
X105382438Y-68935713D02*
X105334819Y-68840475D01*
X105334819Y-68840475D02*
X105334819Y-68649999D01*
X105334819Y-68649999D02*
X105382438Y-68554761D01*
X105382438Y-68554761D02*
X105430057Y-68507142D01*
X105430057Y-68507142D02*
X105525295Y-68459523D01*
X105525295Y-68459523D02*
X105572914Y-68459523D01*
X105572914Y-68459523D02*
X105668152Y-68507142D01*
X105668152Y-68507142D02*
X105715771Y-68554761D01*
X105715771Y-68554761D02*
X105763390Y-68649999D01*
X105763390Y-68649999D02*
X105763390Y-68840475D01*
X105763390Y-68840475D02*
X105811009Y-68935713D01*
X105811009Y-68935713D02*
X105858628Y-68983332D01*
X105858628Y-68983332D02*
X105953866Y-69030951D01*
X105953866Y-69030951D02*
X106144342Y-69030951D01*
X106144342Y-69030951D02*
X106239580Y-68983332D01*
X106239580Y-68983332D02*
X106287200Y-68935713D01*
X106287200Y-68935713D02*
X106334819Y-68840475D01*
X106334819Y-68840475D02*
X106334819Y-68649999D01*
X106334819Y-68649999D02*
X106287200Y-68554761D01*
X106287200Y-68554761D02*
X106239580Y-68507142D01*
X106239580Y-68507142D02*
X106144342Y-68459523D01*
X106144342Y-68459523D02*
X105953866Y-68459523D01*
X105953866Y-68459523D02*
X105858628Y-68507142D01*
X105858628Y-68507142D02*
X105811009Y-68554761D01*
X105811009Y-68554761D02*
X105763390Y-68649999D01*
X106334819Y-67983332D02*
X106334819Y-67792856D01*
X106334819Y-67792856D02*
X106287200Y-67697618D01*
X106287200Y-67697618D02*
X106239580Y-67649999D01*
X106239580Y-67649999D02*
X106096723Y-67554761D01*
X106096723Y-67554761D02*
X105906247Y-67507142D01*
X105906247Y-67507142D02*
X105525295Y-67507142D01*
X105525295Y-67507142D02*
X105430057Y-67554761D01*
X105430057Y-67554761D02*
X105382438Y-67602380D01*
X105382438Y-67602380D02*
X105334819Y-67697618D01*
X105334819Y-67697618D02*
X105334819Y-67888094D01*
X105334819Y-67888094D02*
X105382438Y-67983332D01*
X105382438Y-67983332D02*
X105430057Y-68030951D01*
X105430057Y-68030951D02*
X105525295Y-68078570D01*
X105525295Y-68078570D02*
X105763390Y-68078570D01*
X105763390Y-68078570D02*
X105858628Y-68030951D01*
X105858628Y-68030951D02*
X105906247Y-67983332D01*
X105906247Y-67983332D02*
X105953866Y-67888094D01*
X105953866Y-67888094D02*
X105953866Y-67697618D01*
X105953866Y-67697618D02*
X105906247Y-67602380D01*
X105906247Y-67602380D02*
X105858628Y-67554761D01*
X105858628Y-67554761D02*
X105763390Y-67507142D01*
X105334819Y-67221427D02*
X106334819Y-66888094D01*
X106334819Y-66888094D02*
X105334819Y-66554761D01*
X138004819Y-92011666D02*
X137528628Y-92344999D01*
X138004819Y-92583094D02*
X137004819Y-92583094D01*
X137004819Y-92583094D02*
X137004819Y-92202142D01*
X137004819Y-92202142D02*
X137052438Y-92106904D01*
X137052438Y-92106904D02*
X137100057Y-92059285D01*
X137100057Y-92059285D02*
X137195295Y-92011666D01*
X137195295Y-92011666D02*
X137338152Y-92011666D01*
X137338152Y-92011666D02*
X137433390Y-92059285D01*
X137433390Y-92059285D02*
X137481009Y-92106904D01*
X137481009Y-92106904D02*
X137528628Y-92202142D01*
X137528628Y-92202142D02*
X137528628Y-92583094D01*
X137338152Y-91154523D02*
X138004819Y-91154523D01*
X136957200Y-91392618D02*
X137671485Y-91630713D01*
X137671485Y-91630713D02*
X137671485Y-91011666D01*
X106334819Y-94769047D02*
X105334819Y-94769047D01*
X105334819Y-94769047D02*
X105334819Y-94530952D01*
X105334819Y-94530952D02*
X105382438Y-94388095D01*
X105382438Y-94388095D02*
X105477676Y-94292857D01*
X105477676Y-94292857D02*
X105572914Y-94245238D01*
X105572914Y-94245238D02*
X105763390Y-94197619D01*
X105763390Y-94197619D02*
X105906247Y-94197619D01*
X105906247Y-94197619D02*
X106096723Y-94245238D01*
X106096723Y-94245238D02*
X106191961Y-94292857D01*
X106191961Y-94292857D02*
X106287200Y-94388095D01*
X106287200Y-94388095D02*
X106334819Y-94530952D01*
X106334819Y-94530952D02*
X106334819Y-94769047D01*
X106334819Y-93769047D02*
X105334819Y-93769047D01*
X105811009Y-93769047D02*
X105811009Y-93197619D01*
X106334819Y-93197619D02*
X105334819Y-93197619D01*
X105334819Y-92864285D02*
X105334819Y-92292857D01*
X106334819Y-92578571D02*
X105334819Y-92578571D01*
X105430057Y-92007142D02*
X105382438Y-91959523D01*
X105382438Y-91959523D02*
X105334819Y-91864285D01*
X105334819Y-91864285D02*
X105334819Y-91626190D01*
X105334819Y-91626190D02*
X105382438Y-91530952D01*
X105382438Y-91530952D02*
X105430057Y-91483333D01*
X105430057Y-91483333D02*
X105525295Y-91435714D01*
X105525295Y-91435714D02*
X105620533Y-91435714D01*
X105620533Y-91435714D02*
X105763390Y-91483333D01*
X105763390Y-91483333D02*
X106334819Y-92054761D01*
X106334819Y-92054761D02*
X106334819Y-91435714D01*
X105334819Y-90816666D02*
X105334819Y-90721428D01*
X105334819Y-90721428D02*
X105382438Y-90626190D01*
X105382438Y-90626190D02*
X105430057Y-90578571D01*
X105430057Y-90578571D02*
X105525295Y-90530952D01*
X105525295Y-90530952D02*
X105715771Y-90483333D01*
X105715771Y-90483333D02*
X105953866Y-90483333D01*
X105953866Y-90483333D02*
X106144342Y-90530952D01*
X106144342Y-90530952D02*
X106239580Y-90578571D01*
X106239580Y-90578571D02*
X106287200Y-90626190D01*
X106287200Y-90626190D02*
X106334819Y-90721428D01*
X106334819Y-90721428D02*
X106334819Y-90816666D01*
X106334819Y-90816666D02*
X106287200Y-90911904D01*
X106287200Y-90911904D02*
X106239580Y-90959523D01*
X106239580Y-90959523D02*
X106144342Y-91007142D01*
X106144342Y-91007142D02*
X105953866Y-91054761D01*
X105953866Y-91054761D02*
X105715771Y-91054761D01*
X105715771Y-91054761D02*
X105525295Y-91007142D01*
X105525295Y-91007142D02*
X105430057Y-90959523D01*
X105430057Y-90959523D02*
X105382438Y-90911904D01*
X105382438Y-90911904D02*
X105334819Y-90816666D01*
X126364761Y-99650057D02*
X126269523Y-99602438D01*
X126269523Y-99602438D02*
X126174285Y-99507200D01*
X126174285Y-99507200D02*
X126031428Y-99364342D01*
X126031428Y-99364342D02*
X125936190Y-99316723D01*
X125936190Y-99316723D02*
X125840952Y-99316723D01*
X125888571Y-99554819D02*
X125793333Y-99507200D01*
X125793333Y-99507200D02*
X125698095Y-99411961D01*
X125698095Y-99411961D02*
X125650476Y-99221485D01*
X125650476Y-99221485D02*
X125650476Y-98888152D01*
X125650476Y-98888152D02*
X125698095Y-98697676D01*
X125698095Y-98697676D02*
X125793333Y-98602438D01*
X125793333Y-98602438D02*
X125888571Y-98554819D01*
X125888571Y-98554819D02*
X126079047Y-98554819D01*
X126079047Y-98554819D02*
X126174285Y-98602438D01*
X126174285Y-98602438D02*
X126269523Y-98697676D01*
X126269523Y-98697676D02*
X126317142Y-98888152D01*
X126317142Y-98888152D02*
X126317142Y-99221485D01*
X126317142Y-99221485D02*
X126269523Y-99411961D01*
X126269523Y-99411961D02*
X126174285Y-99507200D01*
X126174285Y-99507200D02*
X126079047Y-99554819D01*
X126079047Y-99554819D02*
X125888571Y-99554819D01*
X127269523Y-99554819D02*
X126698095Y-99554819D01*
X126983809Y-99554819D02*
X126983809Y-98554819D01*
X126983809Y-98554819D02*
X126888571Y-98697676D01*
X126888571Y-98697676D02*
X126793333Y-98792914D01*
X126793333Y-98792914D02*
X126698095Y-98840533D01*
X156754819Y-82369047D02*
X156754819Y-82845237D01*
X156754819Y-82845237D02*
X155754819Y-82845237D01*
X156231009Y-82035713D02*
X156231009Y-81702380D01*
X156754819Y-81559523D02*
X156754819Y-82035713D01*
X156754819Y-82035713D02*
X155754819Y-82035713D01*
X155754819Y-82035713D02*
X155754819Y-81559523D01*
X156754819Y-81130951D02*
X155754819Y-81130951D01*
X155754819Y-81130951D02*
X155754819Y-80892856D01*
X155754819Y-80892856D02*
X155802438Y-80749999D01*
X155802438Y-80749999D02*
X155897676Y-80654761D01*
X155897676Y-80654761D02*
X155992914Y-80607142D01*
X155992914Y-80607142D02*
X156183390Y-80559523D01*
X156183390Y-80559523D02*
X156326247Y-80559523D01*
X156326247Y-80559523D02*
X156516723Y-80607142D01*
X156516723Y-80607142D02*
X156611961Y-80654761D01*
X156611961Y-80654761D02*
X156707200Y-80749999D01*
X156707200Y-80749999D02*
X156754819Y-80892856D01*
X156754819Y-80892856D02*
X156754819Y-81130951D01*
X156850057Y-80369047D02*
X156850057Y-79607142D01*
X156707200Y-79416665D02*
X156754819Y-79273808D01*
X156754819Y-79273808D02*
X156754819Y-79035713D01*
X156754819Y-79035713D02*
X156707200Y-78940475D01*
X156707200Y-78940475D02*
X156659580Y-78892856D01*
X156659580Y-78892856D02*
X156564342Y-78845237D01*
X156564342Y-78845237D02*
X156469104Y-78845237D01*
X156469104Y-78845237D02*
X156373866Y-78892856D01*
X156373866Y-78892856D02*
X156326247Y-78940475D01*
X156326247Y-78940475D02*
X156278628Y-79035713D01*
X156278628Y-79035713D02*
X156231009Y-79226189D01*
X156231009Y-79226189D02*
X156183390Y-79321427D01*
X156183390Y-79321427D02*
X156135771Y-79369046D01*
X156135771Y-79369046D02*
X156040533Y-79416665D01*
X156040533Y-79416665D02*
X155945295Y-79416665D01*
X155945295Y-79416665D02*
X155850057Y-79369046D01*
X155850057Y-79369046D02*
X155802438Y-79321427D01*
X155802438Y-79321427D02*
X155754819Y-79226189D01*
X155754819Y-79226189D02*
X155754819Y-78988094D01*
X155754819Y-78988094D02*
X155802438Y-78845237D01*
X155754819Y-78559522D02*
X155754819Y-77988094D01*
X156754819Y-78273808D02*
X155754819Y-78273808D01*
X156754819Y-77083332D02*
X156278628Y-77416665D01*
X156754819Y-77654760D02*
X155754819Y-77654760D01*
X155754819Y-77654760D02*
X155754819Y-77273808D01*
X155754819Y-77273808D02*
X155802438Y-77178570D01*
X155802438Y-77178570D02*
X155850057Y-77130951D01*
X155850057Y-77130951D02*
X155945295Y-77083332D01*
X155945295Y-77083332D02*
X156088152Y-77083332D01*
X156088152Y-77083332D02*
X156183390Y-77130951D01*
X156183390Y-77130951D02*
X156231009Y-77178570D01*
X156231009Y-77178570D02*
X156278628Y-77273808D01*
X156278628Y-77273808D02*
X156278628Y-77654760D01*
X156754819Y-76654760D02*
X155754819Y-76654760D01*
X156754819Y-76178570D02*
X155754819Y-76178570D01*
X155754819Y-76178570D02*
X155754819Y-75797618D01*
X155754819Y-75797618D02*
X155802438Y-75702380D01*
X155802438Y-75702380D02*
X155850057Y-75654761D01*
X155850057Y-75654761D02*
X155945295Y-75607142D01*
X155945295Y-75607142D02*
X156088152Y-75607142D01*
X156088152Y-75607142D02*
X156183390Y-75654761D01*
X156183390Y-75654761D02*
X156231009Y-75702380D01*
X156231009Y-75702380D02*
X156278628Y-75797618D01*
X156278628Y-75797618D02*
X156278628Y-76178570D01*
X138864761Y-99650057D02*
X138769523Y-99602438D01*
X138769523Y-99602438D02*
X138674285Y-99507200D01*
X138674285Y-99507200D02*
X138531428Y-99364342D01*
X138531428Y-99364342D02*
X138436190Y-99316723D01*
X138436190Y-99316723D02*
X138340952Y-99316723D01*
X138388571Y-99554819D02*
X138293333Y-99507200D01*
X138293333Y-99507200D02*
X138198095Y-99411961D01*
X138198095Y-99411961D02*
X138150476Y-99221485D01*
X138150476Y-99221485D02*
X138150476Y-98888152D01*
X138150476Y-98888152D02*
X138198095Y-98697676D01*
X138198095Y-98697676D02*
X138293333Y-98602438D01*
X138293333Y-98602438D02*
X138388571Y-98554819D01*
X138388571Y-98554819D02*
X138579047Y-98554819D01*
X138579047Y-98554819D02*
X138674285Y-98602438D01*
X138674285Y-98602438D02*
X138769523Y-98697676D01*
X138769523Y-98697676D02*
X138817142Y-98888152D01*
X138817142Y-98888152D02*
X138817142Y-99221485D01*
X138817142Y-99221485D02*
X138769523Y-99411961D01*
X138769523Y-99411961D02*
X138674285Y-99507200D01*
X138674285Y-99507200D02*
X138579047Y-99554819D01*
X138579047Y-99554819D02*
X138388571Y-99554819D01*
X139150476Y-98554819D02*
X139769523Y-98554819D01*
X139769523Y-98554819D02*
X139436190Y-98935771D01*
X139436190Y-98935771D02*
X139579047Y-98935771D01*
X139579047Y-98935771D02*
X139674285Y-98983390D01*
X139674285Y-98983390D02*
X139721904Y-99031009D01*
X139721904Y-99031009D02*
X139769523Y-99126247D01*
X139769523Y-99126247D02*
X139769523Y-99364342D01*
X139769523Y-99364342D02*
X139721904Y-99459580D01*
X139721904Y-99459580D02*
X139674285Y-99507200D01*
X139674285Y-99507200D02*
X139579047Y-99554819D01*
X139579047Y-99554819D02*
X139293333Y-99554819D01*
X139293333Y-99554819D02*
X139198095Y-99507200D01*
X139198095Y-99507200D02*
X139150476Y-99459580D01*
X105964819Y-54642856D02*
X106964819Y-54404761D01*
X106964819Y-54404761D02*
X106250533Y-54214285D01*
X106250533Y-54214285D02*
X106964819Y-54023809D01*
X106964819Y-54023809D02*
X105964819Y-53785714D01*
X106964819Y-53404761D02*
X106298152Y-53404761D01*
X105964819Y-53404761D02*
X106012438Y-53452380D01*
X106012438Y-53452380D02*
X106060057Y-53404761D01*
X106060057Y-53404761D02*
X106012438Y-53357142D01*
X106012438Y-53357142D02*
X105964819Y-53404761D01*
X105964819Y-53404761D02*
X106060057Y-53404761D01*
X106441009Y-52595238D02*
X106441009Y-52928571D01*
X106964819Y-52928571D02*
X105964819Y-52928571D01*
X105964819Y-52928571D02*
X105964819Y-52452381D01*
X106964819Y-52071428D02*
X106298152Y-52071428D01*
X105964819Y-52071428D02*
X106012438Y-52119047D01*
X106012438Y-52119047D02*
X106060057Y-52071428D01*
X106060057Y-52071428D02*
X106012438Y-52023809D01*
X106012438Y-52023809D02*
X105964819Y-52071428D01*
X105964819Y-52071428D02*
X106060057Y-52071428D01*
X107060057Y-51833334D02*
X107060057Y-51071429D01*
X106441009Y-50500000D02*
X106488628Y-50357143D01*
X106488628Y-50357143D02*
X106536247Y-50309524D01*
X106536247Y-50309524D02*
X106631485Y-50261905D01*
X106631485Y-50261905D02*
X106774342Y-50261905D01*
X106774342Y-50261905D02*
X106869580Y-50309524D01*
X106869580Y-50309524D02*
X106917200Y-50357143D01*
X106917200Y-50357143D02*
X106964819Y-50452381D01*
X106964819Y-50452381D02*
X106964819Y-50833333D01*
X106964819Y-50833333D02*
X105964819Y-50833333D01*
X105964819Y-50833333D02*
X105964819Y-50500000D01*
X105964819Y-50500000D02*
X106012438Y-50404762D01*
X106012438Y-50404762D02*
X106060057Y-50357143D01*
X106060057Y-50357143D02*
X106155295Y-50309524D01*
X106155295Y-50309524D02*
X106250533Y-50309524D01*
X106250533Y-50309524D02*
X106345771Y-50357143D01*
X106345771Y-50357143D02*
X106393390Y-50404762D01*
X106393390Y-50404762D02*
X106441009Y-50500000D01*
X106441009Y-50500000D02*
X106441009Y-50833333D01*
X106298152Y-49404762D02*
X106964819Y-49404762D01*
X106298152Y-49833333D02*
X106821961Y-49833333D01*
X106821961Y-49833333D02*
X106917200Y-49785714D01*
X106917200Y-49785714D02*
X106964819Y-49690476D01*
X106964819Y-49690476D02*
X106964819Y-49547619D01*
X106964819Y-49547619D02*
X106917200Y-49452381D01*
X106917200Y-49452381D02*
X106869580Y-49404762D01*
X106298152Y-49071428D02*
X106298152Y-48690476D01*
X105964819Y-48928571D02*
X106821961Y-48928571D01*
X106821961Y-48928571D02*
X106917200Y-48880952D01*
X106917200Y-48880952D02*
X106964819Y-48785714D01*
X106964819Y-48785714D02*
X106964819Y-48690476D01*
X106298152Y-48499999D02*
X106298152Y-48119047D01*
X105964819Y-48357142D02*
X106821961Y-48357142D01*
X106821961Y-48357142D02*
X106917200Y-48309523D01*
X106917200Y-48309523D02*
X106964819Y-48214285D01*
X106964819Y-48214285D02*
X106964819Y-48119047D01*
X106964819Y-47642856D02*
X106917200Y-47738094D01*
X106917200Y-47738094D02*
X106869580Y-47785713D01*
X106869580Y-47785713D02*
X106774342Y-47833332D01*
X106774342Y-47833332D02*
X106488628Y-47833332D01*
X106488628Y-47833332D02*
X106393390Y-47785713D01*
X106393390Y-47785713D02*
X106345771Y-47738094D01*
X106345771Y-47738094D02*
X106298152Y-47642856D01*
X106298152Y-47642856D02*
X106298152Y-47499999D01*
X106298152Y-47499999D02*
X106345771Y-47404761D01*
X106345771Y-47404761D02*
X106393390Y-47357142D01*
X106393390Y-47357142D02*
X106488628Y-47309523D01*
X106488628Y-47309523D02*
X106774342Y-47309523D01*
X106774342Y-47309523D02*
X106869580Y-47357142D01*
X106869580Y-47357142D02*
X106917200Y-47404761D01*
X106917200Y-47404761D02*
X106964819Y-47499999D01*
X106964819Y-47499999D02*
X106964819Y-47642856D01*
X106298152Y-46880951D02*
X106964819Y-46880951D01*
X106393390Y-46880951D02*
X106345771Y-46833332D01*
X106345771Y-46833332D02*
X106298152Y-46738094D01*
X106298152Y-46738094D02*
X106298152Y-46595237D01*
X106298152Y-46595237D02*
X106345771Y-46499999D01*
X106345771Y-46499999D02*
X106441009Y-46452380D01*
X106441009Y-46452380D02*
X106964819Y-46452380D01*
X156321009Y-93511904D02*
X156321009Y-93845237D01*
X156844819Y-93845237D02*
X155844819Y-93845237D01*
X155844819Y-93845237D02*
X155844819Y-93369047D01*
X156844819Y-92559523D02*
X156321009Y-92559523D01*
X156321009Y-92559523D02*
X156225771Y-92607142D01*
X156225771Y-92607142D02*
X156178152Y-92702380D01*
X156178152Y-92702380D02*
X156178152Y-92892856D01*
X156178152Y-92892856D02*
X156225771Y-92988094D01*
X156797200Y-92559523D02*
X156844819Y-92654761D01*
X156844819Y-92654761D02*
X156844819Y-92892856D01*
X156844819Y-92892856D02*
X156797200Y-92988094D01*
X156797200Y-92988094D02*
X156701961Y-93035713D01*
X156701961Y-93035713D02*
X156606723Y-93035713D01*
X156606723Y-93035713D02*
X156511485Y-92988094D01*
X156511485Y-92988094D02*
X156463866Y-92892856D01*
X156463866Y-92892856D02*
X156463866Y-92654761D01*
X156463866Y-92654761D02*
X156416247Y-92559523D01*
X156178152Y-92083332D02*
X156844819Y-92083332D01*
X156273390Y-92083332D02*
X156225771Y-92035713D01*
X156225771Y-92035713D02*
X156178152Y-91940475D01*
X156178152Y-91940475D02*
X156178152Y-91797618D01*
X156178152Y-91797618D02*
X156225771Y-91702380D01*
X156225771Y-91702380D02*
X156321009Y-91654761D01*
X156321009Y-91654761D02*
X156844819Y-91654761D01*
X138004819Y-89011666D02*
X137528628Y-89344999D01*
X138004819Y-89583094D02*
X137004819Y-89583094D01*
X137004819Y-89583094D02*
X137004819Y-89202142D01*
X137004819Y-89202142D02*
X137052438Y-89106904D01*
X137052438Y-89106904D02*
X137100057Y-89059285D01*
X137100057Y-89059285D02*
X137195295Y-89011666D01*
X137195295Y-89011666D02*
X137338152Y-89011666D01*
X137338152Y-89011666D02*
X137433390Y-89059285D01*
X137433390Y-89059285D02*
X137481009Y-89106904D01*
X137481009Y-89106904D02*
X137528628Y-89202142D01*
X137528628Y-89202142D02*
X137528628Y-89583094D01*
X137004819Y-88678332D02*
X137004819Y-88059285D01*
X137004819Y-88059285D02*
X137385771Y-88392618D01*
X137385771Y-88392618D02*
X137385771Y-88249761D01*
X137385771Y-88249761D02*
X137433390Y-88154523D01*
X137433390Y-88154523D02*
X137481009Y-88106904D01*
X137481009Y-88106904D02*
X137576247Y-88059285D01*
X137576247Y-88059285D02*
X137814342Y-88059285D01*
X137814342Y-88059285D02*
X137909580Y-88106904D01*
X137909580Y-88106904D02*
X137957200Y-88154523D01*
X137957200Y-88154523D02*
X138004819Y-88249761D01*
X138004819Y-88249761D02*
X138004819Y-88535475D01*
X138004819Y-88535475D02*
X137957200Y-88630713D01*
X137957200Y-88630713D02*
X137909580Y-88678332D01*
X156141009Y-56154762D02*
X156141009Y-55821429D01*
X156664819Y-55678572D02*
X156664819Y-56154762D01*
X156664819Y-56154762D02*
X155664819Y-56154762D01*
X155664819Y-56154762D02*
X155664819Y-55678572D01*
X156664819Y-55345238D02*
X155998152Y-54821429D01*
X155998152Y-55345238D02*
X156664819Y-54821429D01*
X155998152Y-54583333D02*
X155998152Y-54202381D01*
X155664819Y-54440476D02*
X156521961Y-54440476D01*
X156521961Y-54440476D02*
X156617200Y-54392857D01*
X156617200Y-54392857D02*
X156664819Y-54297619D01*
X156664819Y-54297619D02*
X156664819Y-54202381D01*
X156617200Y-53488095D02*
X156664819Y-53583333D01*
X156664819Y-53583333D02*
X156664819Y-53773809D01*
X156664819Y-53773809D02*
X156617200Y-53869047D01*
X156617200Y-53869047D02*
X156521961Y-53916666D01*
X156521961Y-53916666D02*
X156141009Y-53916666D01*
X156141009Y-53916666D02*
X156045771Y-53869047D01*
X156045771Y-53869047D02*
X155998152Y-53773809D01*
X155998152Y-53773809D02*
X155998152Y-53583333D01*
X155998152Y-53583333D02*
X156045771Y-53488095D01*
X156045771Y-53488095D02*
X156141009Y-53440476D01*
X156141009Y-53440476D02*
X156236247Y-53440476D01*
X156236247Y-53440476D02*
X156331485Y-53916666D01*
X156664819Y-53011904D02*
X155998152Y-53011904D01*
X156188628Y-53011904D02*
X156093390Y-52964285D01*
X156093390Y-52964285D02*
X156045771Y-52916666D01*
X156045771Y-52916666D02*
X155998152Y-52821428D01*
X155998152Y-52821428D02*
X155998152Y-52726190D01*
X155998152Y-52392856D02*
X156664819Y-52392856D01*
X156093390Y-52392856D02*
X156045771Y-52345237D01*
X156045771Y-52345237D02*
X155998152Y-52249999D01*
X155998152Y-52249999D02*
X155998152Y-52107142D01*
X155998152Y-52107142D02*
X156045771Y-52011904D01*
X156045771Y-52011904D02*
X156141009Y-51964285D01*
X156141009Y-51964285D02*
X156664819Y-51964285D01*
X156664819Y-51059523D02*
X156141009Y-51059523D01*
X156141009Y-51059523D02*
X156045771Y-51107142D01*
X156045771Y-51107142D02*
X155998152Y-51202380D01*
X155998152Y-51202380D02*
X155998152Y-51392856D01*
X155998152Y-51392856D02*
X156045771Y-51488094D01*
X156617200Y-51059523D02*
X156664819Y-51154761D01*
X156664819Y-51154761D02*
X156664819Y-51392856D01*
X156664819Y-51392856D02*
X156617200Y-51488094D01*
X156617200Y-51488094D02*
X156521961Y-51535713D01*
X156521961Y-51535713D02*
X156426723Y-51535713D01*
X156426723Y-51535713D02*
X156331485Y-51488094D01*
X156331485Y-51488094D02*
X156283866Y-51392856D01*
X156283866Y-51392856D02*
X156283866Y-51154761D01*
X156283866Y-51154761D02*
X156236247Y-51059523D01*
X156664819Y-50440475D02*
X156617200Y-50535713D01*
X156617200Y-50535713D02*
X156521961Y-50583332D01*
X156521961Y-50583332D02*
X155664819Y-50583332D01*
X156760057Y-50297618D02*
X156760057Y-49535713D01*
X156664819Y-49297617D02*
X155664819Y-49297617D01*
X155664819Y-49297617D02*
X155664819Y-48916665D01*
X155664819Y-48916665D02*
X155712438Y-48821427D01*
X155712438Y-48821427D02*
X155760057Y-48773808D01*
X155760057Y-48773808D02*
X155855295Y-48726189D01*
X155855295Y-48726189D02*
X155998152Y-48726189D01*
X155998152Y-48726189D02*
X156093390Y-48773808D01*
X156093390Y-48773808D02*
X156141009Y-48821427D01*
X156141009Y-48821427D02*
X156188628Y-48916665D01*
X156188628Y-48916665D02*
X156188628Y-49297617D01*
X156664819Y-48154760D02*
X156617200Y-48249998D01*
X156617200Y-48249998D02*
X156569580Y-48297617D01*
X156569580Y-48297617D02*
X156474342Y-48345236D01*
X156474342Y-48345236D02*
X156188628Y-48345236D01*
X156188628Y-48345236D02*
X156093390Y-48297617D01*
X156093390Y-48297617D02*
X156045771Y-48249998D01*
X156045771Y-48249998D02*
X155998152Y-48154760D01*
X155998152Y-48154760D02*
X155998152Y-48011903D01*
X155998152Y-48011903D02*
X156045771Y-47916665D01*
X156045771Y-47916665D02*
X156093390Y-47869046D01*
X156093390Y-47869046D02*
X156188628Y-47821427D01*
X156188628Y-47821427D02*
X156474342Y-47821427D01*
X156474342Y-47821427D02*
X156569580Y-47869046D01*
X156569580Y-47869046D02*
X156617200Y-47916665D01*
X156617200Y-47916665D02*
X156664819Y-48011903D01*
X156664819Y-48011903D02*
X156664819Y-48154760D01*
X155998152Y-47488093D02*
X156664819Y-47297617D01*
X156664819Y-47297617D02*
X156188628Y-47107141D01*
X156188628Y-47107141D02*
X156664819Y-46916665D01*
X156664819Y-46916665D02*
X155998152Y-46726189D01*
X156617200Y-45964284D02*
X156664819Y-46059522D01*
X156664819Y-46059522D02*
X156664819Y-46249998D01*
X156664819Y-46249998D02*
X156617200Y-46345236D01*
X156617200Y-46345236D02*
X156521961Y-46392855D01*
X156521961Y-46392855D02*
X156141009Y-46392855D01*
X156141009Y-46392855D02*
X156045771Y-46345236D01*
X156045771Y-46345236D02*
X155998152Y-46249998D01*
X155998152Y-46249998D02*
X155998152Y-46059522D01*
X155998152Y-46059522D02*
X156045771Y-45964284D01*
X156045771Y-45964284D02*
X156141009Y-45916665D01*
X156141009Y-45916665D02*
X156236247Y-45916665D01*
X156236247Y-45916665D02*
X156331485Y-46392855D01*
X156664819Y-45488093D02*
X155998152Y-45488093D01*
X156188628Y-45488093D02*
X156093390Y-45440474D01*
X156093390Y-45440474D02*
X156045771Y-45392855D01*
X156045771Y-45392855D02*
X155998152Y-45297617D01*
X155998152Y-45297617D02*
X155998152Y-45202379D01*
X126997618Y-89999580D02*
X126949999Y-90047200D01*
X126949999Y-90047200D02*
X126807142Y-90094819D01*
X126807142Y-90094819D02*
X126711904Y-90094819D01*
X126711904Y-90094819D02*
X126569047Y-90047200D01*
X126569047Y-90047200D02*
X126473809Y-89951961D01*
X126473809Y-89951961D02*
X126426190Y-89856723D01*
X126426190Y-89856723D02*
X126378571Y-89666247D01*
X126378571Y-89666247D02*
X126378571Y-89523390D01*
X126378571Y-89523390D02*
X126426190Y-89332914D01*
X126426190Y-89332914D02*
X126473809Y-89237676D01*
X126473809Y-89237676D02*
X126569047Y-89142438D01*
X126569047Y-89142438D02*
X126711904Y-89094819D01*
X126711904Y-89094819D02*
X126807142Y-89094819D01*
X126807142Y-89094819D02*
X126949999Y-89142438D01*
X126949999Y-89142438D02*
X126997618Y-89190057D01*
X127949999Y-90094819D02*
X127378571Y-90094819D01*
X127664285Y-90094819D02*
X127664285Y-89094819D01*
X127664285Y-89094819D02*
X127569047Y-89237676D01*
X127569047Y-89237676D02*
X127473809Y-89332914D01*
X127473809Y-89332914D02*
X127378571Y-89380533D01*
X128140476Y-90190057D02*
X128902380Y-90190057D01*
X129330952Y-89094819D02*
X129426190Y-89094819D01*
X129426190Y-89094819D02*
X129521428Y-89142438D01*
X129521428Y-89142438D02*
X129569047Y-89190057D01*
X129569047Y-89190057D02*
X129616666Y-89285295D01*
X129616666Y-89285295D02*
X129664285Y-89475771D01*
X129664285Y-89475771D02*
X129664285Y-89713866D01*
X129664285Y-89713866D02*
X129616666Y-89904342D01*
X129616666Y-89904342D02*
X129569047Y-89999580D01*
X129569047Y-89999580D02*
X129521428Y-90047200D01*
X129521428Y-90047200D02*
X129426190Y-90094819D01*
X129426190Y-90094819D02*
X129330952Y-90094819D01*
X129330952Y-90094819D02*
X129235714Y-90047200D01*
X129235714Y-90047200D02*
X129188095Y-89999580D01*
X129188095Y-89999580D02*
X129140476Y-89904342D01*
X129140476Y-89904342D02*
X129092857Y-89713866D01*
X129092857Y-89713866D02*
X129092857Y-89475771D01*
X129092857Y-89475771D02*
X129140476Y-89285295D01*
X129140476Y-89285295D02*
X129188095Y-89190057D01*
X129188095Y-89190057D02*
X129235714Y-89142438D01*
X129235714Y-89142438D02*
X129330952Y-89094819D01*
X130235714Y-89523390D02*
X130140476Y-89475771D01*
X130140476Y-89475771D02*
X130092857Y-89428152D01*
X130092857Y-89428152D02*
X130045238Y-89332914D01*
X130045238Y-89332914D02*
X130045238Y-89285295D01*
X130045238Y-89285295D02*
X130092857Y-89190057D01*
X130092857Y-89190057D02*
X130140476Y-89142438D01*
X130140476Y-89142438D02*
X130235714Y-89094819D01*
X130235714Y-89094819D02*
X130426190Y-89094819D01*
X130426190Y-89094819D02*
X130521428Y-89142438D01*
X130521428Y-89142438D02*
X130569047Y-89190057D01*
X130569047Y-89190057D02*
X130616666Y-89285295D01*
X130616666Y-89285295D02*
X130616666Y-89332914D01*
X130616666Y-89332914D02*
X130569047Y-89428152D01*
X130569047Y-89428152D02*
X130521428Y-89475771D01*
X130521428Y-89475771D02*
X130426190Y-89523390D01*
X130426190Y-89523390D02*
X130235714Y-89523390D01*
X130235714Y-89523390D02*
X130140476Y-89571009D01*
X130140476Y-89571009D02*
X130092857Y-89618628D01*
X130092857Y-89618628D02*
X130045238Y-89713866D01*
X130045238Y-89713866D02*
X130045238Y-89904342D01*
X130045238Y-89904342D02*
X130092857Y-89999580D01*
X130092857Y-89999580D02*
X130140476Y-90047200D01*
X130140476Y-90047200D02*
X130235714Y-90094819D01*
X130235714Y-90094819D02*
X130426190Y-90094819D01*
X130426190Y-90094819D02*
X130521428Y-90047200D01*
X130521428Y-90047200D02*
X130569047Y-89999580D01*
X130569047Y-89999580D02*
X130616666Y-89904342D01*
X130616666Y-89904342D02*
X130616666Y-89713866D01*
X130616666Y-89713866D02*
X130569047Y-89618628D01*
X130569047Y-89618628D02*
X130521428Y-89571009D01*
X130521428Y-89571009D02*
X130426190Y-89523390D01*
X131235714Y-89094819D02*
X131330952Y-89094819D01*
X131330952Y-89094819D02*
X131426190Y-89142438D01*
X131426190Y-89142438D02*
X131473809Y-89190057D01*
X131473809Y-89190057D02*
X131521428Y-89285295D01*
X131521428Y-89285295D02*
X131569047Y-89475771D01*
X131569047Y-89475771D02*
X131569047Y-89713866D01*
X131569047Y-89713866D02*
X131521428Y-89904342D01*
X131521428Y-89904342D02*
X131473809Y-89999580D01*
X131473809Y-89999580D02*
X131426190Y-90047200D01*
X131426190Y-90047200D02*
X131330952Y-90094819D01*
X131330952Y-90094819D02*
X131235714Y-90094819D01*
X131235714Y-90094819D02*
X131140476Y-90047200D01*
X131140476Y-90047200D02*
X131092857Y-89999580D01*
X131092857Y-89999580D02*
X131045238Y-89904342D01*
X131045238Y-89904342D02*
X130997619Y-89713866D01*
X130997619Y-89713866D02*
X130997619Y-89475771D01*
X130997619Y-89475771D02*
X131045238Y-89285295D01*
X131045238Y-89285295D02*
X131092857Y-89190057D01*
X131092857Y-89190057D02*
X131140476Y-89142438D01*
X131140476Y-89142438D02*
X131235714Y-89094819D01*
X132473809Y-89094819D02*
X131997619Y-89094819D01*
X131997619Y-89094819D02*
X131950000Y-89571009D01*
X131950000Y-89571009D02*
X131997619Y-89523390D01*
X131997619Y-89523390D02*
X132092857Y-89475771D01*
X132092857Y-89475771D02*
X132330952Y-89475771D01*
X132330952Y-89475771D02*
X132426190Y-89523390D01*
X132426190Y-89523390D02*
X132473809Y-89571009D01*
X132473809Y-89571009D02*
X132521428Y-89666247D01*
X132521428Y-89666247D02*
X132521428Y-89904342D01*
X132521428Y-89904342D02*
X132473809Y-89999580D01*
X132473809Y-89999580D02*
X132426190Y-90047200D01*
X132426190Y-90047200D02*
X132330952Y-90094819D01*
X132330952Y-90094819D02*
X132092857Y-90094819D01*
X132092857Y-90094819D02*
X131997619Y-90047200D01*
X131997619Y-90047200D02*
X131950000Y-89999580D01*
X125681905Y-106424819D02*
X125681905Y-105424819D01*
X125681905Y-105424819D02*
X125920000Y-105424819D01*
X125920000Y-105424819D02*
X126062857Y-105472438D01*
X126062857Y-105472438D02*
X126158095Y-105567676D01*
X126158095Y-105567676D02*
X126205714Y-105662914D01*
X126205714Y-105662914D02*
X126253333Y-105853390D01*
X126253333Y-105853390D02*
X126253333Y-105996247D01*
X126253333Y-105996247D02*
X126205714Y-106186723D01*
X126205714Y-106186723D02*
X126158095Y-106281961D01*
X126158095Y-106281961D02*
X126062857Y-106377200D01*
X126062857Y-106377200D02*
X125920000Y-106424819D01*
X125920000Y-106424819D02*
X125681905Y-106424819D01*
X127205714Y-106424819D02*
X126634286Y-106424819D01*
X126920000Y-106424819D02*
X126920000Y-105424819D01*
X126920000Y-105424819D02*
X126824762Y-105567676D01*
X126824762Y-105567676D02*
X126729524Y-105662914D01*
X126729524Y-105662914D02*
X126634286Y-105710533D01*
X131238095Y-106054819D02*
X131238095Y-105054819D01*
X131809523Y-106054819D02*
X131380952Y-105483390D01*
X131809523Y-105054819D02*
X131238095Y-105626247D01*
X122784819Y-92061666D02*
X122308628Y-92394999D01*
X122784819Y-92633094D02*
X121784819Y-92633094D01*
X121784819Y-92633094D02*
X121784819Y-92252142D01*
X121784819Y-92252142D02*
X121832438Y-92156904D01*
X121832438Y-92156904D02*
X121880057Y-92109285D01*
X121880057Y-92109285D02*
X121975295Y-92061666D01*
X121975295Y-92061666D02*
X122118152Y-92061666D01*
X122118152Y-92061666D02*
X122213390Y-92109285D01*
X122213390Y-92109285D02*
X122261009Y-92156904D01*
X122261009Y-92156904D02*
X122308628Y-92252142D01*
X122308628Y-92252142D02*
X122308628Y-92633094D01*
X121880057Y-91680713D02*
X121832438Y-91633094D01*
X121832438Y-91633094D02*
X121784819Y-91537856D01*
X121784819Y-91537856D02*
X121784819Y-91299761D01*
X121784819Y-91299761D02*
X121832438Y-91204523D01*
X121832438Y-91204523D02*
X121880057Y-91156904D01*
X121880057Y-91156904D02*
X121975295Y-91109285D01*
X121975295Y-91109285D02*
X122070533Y-91109285D01*
X122070533Y-91109285D02*
X122213390Y-91156904D01*
X122213390Y-91156904D02*
X122784819Y-91728332D01*
X122784819Y-91728332D02*
X122784819Y-91109285D01*
X155754819Y-71345239D02*
X156754819Y-71107144D01*
X156754819Y-71107144D02*
X156040533Y-70916668D01*
X156040533Y-70916668D02*
X156754819Y-70726192D01*
X156754819Y-70726192D02*
X155754819Y-70488097D01*
X156754819Y-69678573D02*
X156231009Y-69678573D01*
X156231009Y-69678573D02*
X156135771Y-69726192D01*
X156135771Y-69726192D02*
X156088152Y-69821430D01*
X156088152Y-69821430D02*
X156088152Y-70011906D01*
X156088152Y-70011906D02*
X156135771Y-70107144D01*
X156707200Y-69678573D02*
X156754819Y-69773811D01*
X156754819Y-69773811D02*
X156754819Y-70011906D01*
X156754819Y-70011906D02*
X156707200Y-70107144D01*
X156707200Y-70107144D02*
X156611961Y-70154763D01*
X156611961Y-70154763D02*
X156516723Y-70154763D01*
X156516723Y-70154763D02*
X156421485Y-70107144D01*
X156421485Y-70107144D02*
X156373866Y-70011906D01*
X156373866Y-70011906D02*
X156373866Y-69773811D01*
X156373866Y-69773811D02*
X156326247Y-69678573D01*
X156088152Y-69345239D02*
X156088152Y-68964287D01*
X155754819Y-69202382D02*
X156611961Y-69202382D01*
X156611961Y-69202382D02*
X156707200Y-69154763D01*
X156707200Y-69154763D02*
X156754819Y-69059525D01*
X156754819Y-69059525D02*
X156754819Y-68964287D01*
X156707200Y-68250001D02*
X156754819Y-68345239D01*
X156754819Y-68345239D02*
X156754819Y-68535715D01*
X156754819Y-68535715D02*
X156707200Y-68630953D01*
X156707200Y-68630953D02*
X156611961Y-68678572D01*
X156611961Y-68678572D02*
X156231009Y-68678572D01*
X156231009Y-68678572D02*
X156135771Y-68630953D01*
X156135771Y-68630953D02*
X156088152Y-68535715D01*
X156088152Y-68535715D02*
X156088152Y-68345239D01*
X156088152Y-68345239D02*
X156135771Y-68250001D01*
X156135771Y-68250001D02*
X156231009Y-68202382D01*
X156231009Y-68202382D02*
X156326247Y-68202382D01*
X156326247Y-68202382D02*
X156421485Y-68678572D01*
X156754819Y-67773810D02*
X156088152Y-67773810D01*
X156278628Y-67773810D02*
X156183390Y-67726191D01*
X156183390Y-67726191D02*
X156135771Y-67678572D01*
X156135771Y-67678572D02*
X156088152Y-67583334D01*
X156088152Y-67583334D02*
X156088152Y-67488096D01*
X156850057Y-67392858D02*
X156850057Y-66630953D01*
X156754819Y-65916667D02*
X156754819Y-66392857D01*
X156754819Y-66392857D02*
X155754819Y-66392857D01*
X156707200Y-65202381D02*
X156754819Y-65297619D01*
X156754819Y-65297619D02*
X156754819Y-65488095D01*
X156754819Y-65488095D02*
X156707200Y-65583333D01*
X156707200Y-65583333D02*
X156611961Y-65630952D01*
X156611961Y-65630952D02*
X156231009Y-65630952D01*
X156231009Y-65630952D02*
X156135771Y-65583333D01*
X156135771Y-65583333D02*
X156088152Y-65488095D01*
X156088152Y-65488095D02*
X156088152Y-65297619D01*
X156088152Y-65297619D02*
X156135771Y-65202381D01*
X156135771Y-65202381D02*
X156231009Y-65154762D01*
X156231009Y-65154762D02*
X156326247Y-65154762D01*
X156326247Y-65154762D02*
X156421485Y-65630952D01*
X156088152Y-64821428D02*
X156754819Y-64583333D01*
X156754819Y-64583333D02*
X156088152Y-64345238D01*
X156707200Y-63583333D02*
X156754819Y-63678571D01*
X156754819Y-63678571D02*
X156754819Y-63869047D01*
X156754819Y-63869047D02*
X156707200Y-63964285D01*
X156707200Y-63964285D02*
X156611961Y-64011904D01*
X156611961Y-64011904D02*
X156231009Y-64011904D01*
X156231009Y-64011904D02*
X156135771Y-63964285D01*
X156135771Y-63964285D02*
X156088152Y-63869047D01*
X156088152Y-63869047D02*
X156088152Y-63678571D01*
X156088152Y-63678571D02*
X156135771Y-63583333D01*
X156135771Y-63583333D02*
X156231009Y-63535714D01*
X156231009Y-63535714D02*
X156326247Y-63535714D01*
X156326247Y-63535714D02*
X156421485Y-64011904D01*
X156754819Y-62964285D02*
X156707200Y-63059523D01*
X156707200Y-63059523D02*
X156611961Y-63107142D01*
X156611961Y-63107142D02*
X155754819Y-63107142D01*
X156850057Y-62821428D02*
X156850057Y-62059523D01*
X156707200Y-61869046D02*
X156754819Y-61726189D01*
X156754819Y-61726189D02*
X156754819Y-61488094D01*
X156754819Y-61488094D02*
X156707200Y-61392856D01*
X156707200Y-61392856D02*
X156659580Y-61345237D01*
X156659580Y-61345237D02*
X156564342Y-61297618D01*
X156564342Y-61297618D02*
X156469104Y-61297618D01*
X156469104Y-61297618D02*
X156373866Y-61345237D01*
X156373866Y-61345237D02*
X156326247Y-61392856D01*
X156326247Y-61392856D02*
X156278628Y-61488094D01*
X156278628Y-61488094D02*
X156231009Y-61678570D01*
X156231009Y-61678570D02*
X156183390Y-61773808D01*
X156183390Y-61773808D02*
X156135771Y-61821427D01*
X156135771Y-61821427D02*
X156040533Y-61869046D01*
X156040533Y-61869046D02*
X155945295Y-61869046D01*
X155945295Y-61869046D02*
X155850057Y-61821427D01*
X155850057Y-61821427D02*
X155802438Y-61773808D01*
X155802438Y-61773808D02*
X155754819Y-61678570D01*
X155754819Y-61678570D02*
X155754819Y-61440475D01*
X155754819Y-61440475D02*
X155802438Y-61297618D01*
X156707200Y-60488094D02*
X156754819Y-60583332D01*
X156754819Y-60583332D02*
X156754819Y-60773808D01*
X156754819Y-60773808D02*
X156707200Y-60869046D01*
X156707200Y-60869046D02*
X156611961Y-60916665D01*
X156611961Y-60916665D02*
X156231009Y-60916665D01*
X156231009Y-60916665D02*
X156135771Y-60869046D01*
X156135771Y-60869046D02*
X156088152Y-60773808D01*
X156088152Y-60773808D02*
X156088152Y-60583332D01*
X156088152Y-60583332D02*
X156135771Y-60488094D01*
X156135771Y-60488094D02*
X156231009Y-60440475D01*
X156231009Y-60440475D02*
X156326247Y-60440475D01*
X156326247Y-60440475D02*
X156421485Y-60916665D01*
X156088152Y-60011903D02*
X156754819Y-60011903D01*
X156183390Y-60011903D02*
X156135771Y-59964284D01*
X156135771Y-59964284D02*
X156088152Y-59869046D01*
X156088152Y-59869046D02*
X156088152Y-59726189D01*
X156088152Y-59726189D02*
X156135771Y-59630951D01*
X156135771Y-59630951D02*
X156231009Y-59583332D01*
X156231009Y-59583332D02*
X156754819Y-59583332D01*
X156707200Y-59154760D02*
X156754819Y-59059522D01*
X156754819Y-59059522D02*
X156754819Y-58869046D01*
X156754819Y-58869046D02*
X156707200Y-58773808D01*
X156707200Y-58773808D02*
X156611961Y-58726189D01*
X156611961Y-58726189D02*
X156564342Y-58726189D01*
X156564342Y-58726189D02*
X156469104Y-58773808D01*
X156469104Y-58773808D02*
X156421485Y-58869046D01*
X156421485Y-58869046D02*
X156421485Y-59011903D01*
X156421485Y-59011903D02*
X156373866Y-59107141D01*
X156373866Y-59107141D02*
X156278628Y-59154760D01*
X156278628Y-59154760D02*
X156231009Y-59154760D01*
X156231009Y-59154760D02*
X156135771Y-59107141D01*
X156135771Y-59107141D02*
X156088152Y-59011903D01*
X156088152Y-59011903D02*
X156088152Y-58869046D01*
X156088152Y-58869046D02*
X156135771Y-58773808D01*
X156754819Y-58154760D02*
X156707200Y-58249998D01*
X156707200Y-58249998D02*
X156659580Y-58297617D01*
X156659580Y-58297617D02*
X156564342Y-58345236D01*
X156564342Y-58345236D02*
X156278628Y-58345236D01*
X156278628Y-58345236D02*
X156183390Y-58297617D01*
X156183390Y-58297617D02*
X156135771Y-58249998D01*
X156135771Y-58249998D02*
X156088152Y-58154760D01*
X156088152Y-58154760D02*
X156088152Y-58011903D01*
X156088152Y-58011903D02*
X156135771Y-57916665D01*
X156135771Y-57916665D02*
X156183390Y-57869046D01*
X156183390Y-57869046D02*
X156278628Y-57821427D01*
X156278628Y-57821427D02*
X156564342Y-57821427D01*
X156564342Y-57821427D02*
X156659580Y-57869046D01*
X156659580Y-57869046D02*
X156707200Y-57916665D01*
X156707200Y-57916665D02*
X156754819Y-58011903D01*
X156754819Y-58011903D02*
X156754819Y-58154760D01*
X156754819Y-57392855D02*
X156088152Y-57392855D01*
X156278628Y-57392855D02*
X156183390Y-57345236D01*
X156183390Y-57345236D02*
X156135771Y-57297617D01*
X156135771Y-57297617D02*
X156088152Y-57202379D01*
X156088152Y-57202379D02*
X156088152Y-57107141D01*
D13*
%TO.C,esp32*%
X118300000Y-47825000D02*
X143700000Y-47825000D01*
X118300000Y-86745000D02*
X118300000Y-47825000D01*
X143700000Y-47825000D02*
X143700000Y-86745000D01*
X143700000Y-86745000D02*
X118300000Y-86745000D01*
%TO.C,Perilstatic_Pump*%
X150530000Y-109685000D02*
X153605000Y-109685000D01*
X154620000Y-108265000D02*
X155120000Y-108265000D01*
X155120000Y-108265000D02*
X155120000Y-108245000D01*
X155120000Y-101255000D02*
X155120000Y-101235000D01*
X154620000Y-101235000D02*
X154620000Y-108265000D01*
X155120000Y-101235000D02*
X154620000Y-101235000D01*
X150530000Y-99815000D02*
X150530000Y-109685000D01*
X153605000Y-99815000D02*
X150530000Y-99815000D01*
%TO.C,ST7789V*%
X106970000Y-58215000D02*
X107970000Y-57215000D01*
X106970000Y-81085000D02*
X106970000Y-58215000D01*
X107970000Y-57215000D02*
X117090000Y-57215000D01*
X107970000Y-82085000D02*
X106970000Y-81085000D01*
X117090000Y-57215000D02*
X117090000Y-59998233D01*
X117090000Y-62998233D02*
X117090000Y-61301767D01*
X117090000Y-65998233D02*
X117090000Y-64301767D01*
X117090000Y-68998233D02*
X117090000Y-67301767D01*
X117090000Y-71998233D02*
X117090000Y-70301767D01*
X117090000Y-74998233D02*
X117090000Y-73301767D01*
X117090000Y-77640000D02*
X117090000Y-76301767D01*
X117090000Y-82085000D02*
X107970000Y-82085000D01*
X117090000Y-82085000D02*
X117090000Y-79660000D01*
%TO.C,DHT20*%
X106970000Y-85715000D02*
X107970000Y-84715000D01*
X106970000Y-99585000D02*
X106970000Y-85715000D01*
X107970000Y-84715000D02*
X117090000Y-84715000D01*
X107970000Y-100585000D02*
X106970000Y-99585000D01*
X117090000Y-84715000D02*
X117090000Y-87498233D01*
X117090000Y-90498233D02*
X117090000Y-88801767D01*
X117090000Y-93498233D02*
X117090000Y-91801767D01*
X117090000Y-96140000D02*
X117090000Y-94801767D01*
X117090000Y-100585000D02*
X107970000Y-100585000D01*
X117090000Y-100585000D02*
X117090000Y-98160000D01*
%TO.C,Q1*%
X121350000Y-93640000D02*
X131570000Y-93640000D01*
X121350000Y-98260000D02*
X121350000Y-93640000D01*
X124610000Y-98260000D02*
X124610000Y-96880000D01*
X128310000Y-98260000D02*
X128310000Y-96880000D01*
X131570000Y-93640000D02*
X131570000Y-98260000D01*
X131570000Y-96880000D02*
X121350000Y-96880000D01*
X131570000Y-98260000D02*
X121350000Y-98260000D01*
%TO.C,LED_STRIP*%
X145090000Y-72815000D02*
X145090000Y-75240000D01*
X145090000Y-72815000D02*
X154210000Y-72815000D01*
X145090000Y-77260000D02*
X145090000Y-78598233D01*
X145090000Y-79901767D02*
X145090000Y-81598233D01*
X145090000Y-85685000D02*
X145090000Y-82901767D01*
X154210000Y-72815000D02*
X155210000Y-73815000D01*
X154210000Y-85685000D02*
X145090000Y-85685000D01*
X155210000Y-73815000D02*
X155210000Y-84685000D01*
X155210000Y-84685000D02*
X154210000Y-85685000D01*
%TO.C,Q3*%
X133850000Y-93640000D02*
X144070000Y-93640000D01*
X133850000Y-98260000D02*
X133850000Y-93640000D01*
X137110000Y-98260000D02*
X137110000Y-96880000D01*
X140810000Y-98260000D02*
X140810000Y-96880000D01*
X144070000Y-93640000D02*
X144070000Y-98260000D01*
X144070000Y-96880000D02*
X133850000Y-96880000D01*
X144070000Y-98260000D02*
X133850000Y-98260000D01*
%TO.C,WiFi_Button*%
X107600000Y-46985000D02*
X107600000Y-47005000D01*
X107600000Y-53995000D02*
X107600000Y-54015000D01*
X107600000Y-54015000D02*
X108100000Y-54015000D01*
X108100000Y-46985000D02*
X107600000Y-46985000D01*
X108100000Y-54015000D02*
X108100000Y-46985000D01*
X109115000Y-55435000D02*
X112190000Y-55435000D01*
X112190000Y-45565000D02*
X109115000Y-45565000D01*
X112190000Y-55435000D02*
X112190000Y-45565000D01*
%TO.C,Fan*%
X150710000Y-87815000D02*
X150710000Y-97685000D01*
X150710000Y-97685000D02*
X153785000Y-97685000D01*
X153785000Y-87815000D02*
X150710000Y-87815000D01*
X154800000Y-89235000D02*
X154800000Y-96265000D01*
X154800000Y-96265000D02*
X155300000Y-96265000D01*
X155300000Y-89235000D02*
X154800000Y-89235000D01*
X155300000Y-89255000D02*
X155300000Y-89235000D01*
X155300000Y-96265000D02*
X155300000Y-96245000D01*
%TO.C,External_Power*%
X150530000Y-45815000D02*
X150530000Y-55685000D01*
X150530000Y-55685000D02*
X153605000Y-55685000D01*
X153605000Y-45815000D02*
X150530000Y-45815000D01*
X154620000Y-47235000D02*
X154620000Y-54265000D01*
X154620000Y-54265000D02*
X155120000Y-54265000D01*
X155120000Y-47235000D02*
X154620000Y-47235000D01*
X155120000Y-47255000D02*
X155120000Y-47235000D01*
X155120000Y-54265000D02*
X155120000Y-54245000D01*
%TO.C,C1_0805*%
X129711252Y-87225000D02*
X129188748Y-87225000D01*
X129711252Y-88695000D02*
X129188748Y-88695000D01*
%TO.C,D1*%
X122680000Y-103500000D02*
X123700000Y-103500000D01*
X128120000Y-104970000D02*
X128120000Y-102030000D01*
X128240000Y-104970000D02*
X128240000Y-102030000D01*
X128360000Y-104970000D02*
X128360000Y-102030000D01*
X130160000Y-103500000D02*
X129140000Y-103500000D01*
X129140000Y-104970000D02*
X123700000Y-104970000D01*
X123700000Y-102030000D01*
X129140000Y-102030000D01*
X129140000Y-104970000D01*
%TO.C,Water_Level_Sensor*%
X145090000Y-57815000D02*
X145090000Y-60240000D01*
X145090000Y-57815000D02*
X154210000Y-57815000D01*
X145090000Y-62260000D02*
X145090000Y-63598233D01*
X145090000Y-64901767D02*
X145090000Y-66598233D01*
X145090000Y-70685000D02*
X145090000Y-67901767D01*
X154210000Y-57815000D02*
X155210000Y-58815000D01*
X154210000Y-70685000D02*
X145090000Y-70685000D01*
X155210000Y-58815000D02*
X155210000Y-69685000D01*
X155210000Y-69685000D02*
X154210000Y-70685000D01*
%TD*%
M02*
