%TF.GenerationSoftware,KiCad,Pcbnew,9.0.4*%
%TF.CreationDate,2026-02-13T22:22:27-05:00*%
%TF.ProjectId,Beta,42657461-2e6b-4696-9361-645f70636258,rev?*%
%TF.SameCoordinates,Original*%
%TF.FileFunction,Copper,L2,Bot*%
%TF.FilePolarity,Positive*%
%FSLAX46Y46*%
G04 Gerber Fmt 4.6, Leading zero omitted, Abs format (unit mm)*
G04 Created by KiCad (PCBNEW 9.0.4) date 2026-02-13 22:22:27*
%MOMM*%
%LPD*%
G01*
G04 APERTURE LIST*
G04 Aperture macros list*
%AMRoundRect*
0 Rectangle with rounded corners*
0 $1 Rounding radius*
0 $2 $3 $4 $5 $6 $7 $8 $9 X,Y pos of 4 corners*
0 Add a 4 corners polygon primitive as box body*
4,1,4,$2,$3,$4,$5,$6,$7,$8,$9,$2,$3,0*
0 Add four circle primitives for the rounded corners*
1,1,$1+$1,$2,$3*
1,1,$1+$1,$4,$5*
1,1,$1+$1,$6,$7*
1,1,$1+$1,$8,$9*
0 Add four rect primitives between the rounded corners*
20,1,$1+$1,$2,$3,$4,$5,0*
20,1,$1+$1,$4,$5,$6,$7,0*
20,1,$1+$1,$6,$7,$8,$9,0*
20,1,$1+$1,$8,$9,$2,$3,0*%
G04 Aperture macros list end*
%TA.AperFunction,ComponentPad*%
%ADD10R,0.850000X0.850000*%
%TD*%
%TA.AperFunction,ComponentPad*%
%ADD11C,0.850000*%
%TD*%
%TA.AperFunction,ComponentPad*%
%ADD12RoundRect,0.250000X-0.625000X0.350000X-0.625000X-0.350000X0.625000X-0.350000X0.625000X0.350000X0*%
%TD*%
%TA.AperFunction,ComponentPad*%
%ADD13O,1.750000X1.200000*%
%TD*%
%TA.AperFunction,ComponentPad*%
%ADD14RoundRect,0.250000X0.625000X-0.350000X0.625000X0.350000X-0.625000X0.350000X-0.625000X-0.350000X0*%
%TD*%
%TA.AperFunction,ComponentPad*%
%ADD15RoundRect,0.250001X1.099999X-1.099999X1.099999X1.099999X-1.099999X1.099999X-1.099999X-1.099999X0*%
%TD*%
%TA.AperFunction,ComponentPad*%
%ADD16C,2.700000*%
%TD*%
%TA.AperFunction,ComponentPad*%
%ADD17R,1.500000X1.500000*%
%TD*%
%TA.AperFunction,ComponentPad*%
%ADD18C,1.500000*%
%TD*%
%TA.AperFunction,ViaPad*%
%ADD19C,0.600000*%
%TD*%
%TA.AperFunction,Conductor*%
%ADD20C,0.200000*%
%TD*%
%TA.AperFunction,Conductor*%
%ADD21C,2.540000*%
%TD*%
G04 APERTURE END LIST*
D10*
%TO.P,BUS_B1,1,Pin_1*%
%TO.N,/B_1*%
X138000000Y-98500000D03*
D11*
%TO.P,BUS_B1,2,Pin_2*%
%TO.N,/B_2*%
X138000000Y-99500000D03*
%TO.P,BUS_B1,3,Pin_3*%
%TO.N,/B_3*%
X138000000Y-100500000D03*
%TO.P,BUS_B1,4,Pin_4*%
%TO.N,/B_4*%
X138000000Y-101500000D03*
%TD*%
D12*
%TO.P,WATER_1,1,VCC*%
%TO.N,VCC*%
X152125000Y-62850000D03*
D13*
%TO.P,WATER_1,2,GND*%
%TO.N,GND*%
X152125000Y-64850000D03*
%TO.P,WATER_1,3,DOUT*%
%TO.N,/WATER_LEV*%
X152125000Y-66850000D03*
%TD*%
D14*
%TO.P,MISTER_1,1,VCC*%
%TO.N,VCC*%
X109375000Y-98600000D03*
D13*
%TO.P,MISTER_1,2,GND*%
%TO.N,/MISTER_NEG*%
X109375000Y-96600000D03*
%TD*%
D15*
%TO.P,PWR1,1,Pin_1*%
%TO.N,VCC*%
X110600000Y-50757500D03*
D16*
%TO.P,PWR1,2,Pin_2*%
%TO.N,GND*%
X110600000Y-46797500D03*
%TD*%
D14*
%TO.P,WIFI1,1,1*%
%TO.N,/WiFi_BUTTON*%
X109225000Y-57800000D03*
D13*
%TO.P,WIFI1,2,2*%
%TO.N,GND*%
X109225000Y-55800000D03*
%TD*%
D14*
%TO.P,DHT_1,1,VDD*%
%TO.N,VCC*%
X109375000Y-90850000D03*
D13*
%TO.P,DHT_1,2,SDA*%
%TO.N,/DHT_SDA*%
X109375000Y-88850000D03*
%TO.P,DHT_1,3,GND*%
%TO.N,GND*%
X109375000Y-86850000D03*
%TO.P,DHT_1,4,SCL*%
%TO.N,/DHT_SCL*%
X109375000Y-84850000D03*
%TD*%
D14*
%TO.P,MISC1,1,1*%
%TO.N,/MISC_BUTTON*%
X109125000Y-105850000D03*
D13*
%TO.P,MISC1,2,2*%
%TO.N,GND*%
X109125000Y-103850000D03*
%TD*%
D12*
%TO.P,PWR_BUTTON1,1,1*%
%TO.N,/POWER_BUTTON*%
X152325000Y-104450000D03*
D13*
%TO.P,PWR_BUTTON1,2,2*%
%TO.N,GND*%
X152325000Y-106450000D03*
%TD*%
D15*
%TO.P,PWR_DAISY1,1,Pin_1*%
%TO.N,VCC*%
X150450000Y-52257500D03*
D16*
%TO.P,PWR_DAISY1,2,Pin_2*%
%TO.N,GND*%
X150450000Y-48297500D03*
%TD*%
D10*
%TO.P,BUS_A1,1,Pin_1*%
%TO.N,/A_1*%
X124500000Y-98500000D03*
D11*
%TO.P,BUS_A1,2,Pin_2*%
%TO.N,/A_2*%
X124500000Y-99500000D03*
%TO.P,BUS_A1,3,Pin_3*%
%TO.N,/A_3*%
X124500000Y-100500000D03*
%TD*%
D12*
%TO.P,FAN1,1,+*%
%TO.N,VCC*%
X152150000Y-81100000D03*
D13*
%TO.P,FAN1,2,-*%
%TO.N,/FAN_NEG*%
X152150000Y-83100000D03*
%TD*%
D12*
%TO.P,LED_STRIP1,1,VCC*%
%TO.N,VCC*%
X152025000Y-72100000D03*
D13*
%TO.P,LED_STRIP1,2,DIN*%
%TO.N,/LED_PIN*%
X152025000Y-74100000D03*
%TO.P,LED_STRIP1,3,GND*%
%TO.N,GND*%
X152025000Y-76100000D03*
%TD*%
D17*
%TO.P,U1,1,3V3*%
%TO.N,unconnected-(U1-3V3-Pad1)*%
X117600000Y-55040000D03*
D18*
%TO.P,U1,2,GND*%
%TO.N,GND*%
X117600000Y-57580000D03*
%TO.P,U1,3,D15*%
%TO.N,/A_2*%
X117600000Y-60120000D03*
%TO.P,U1,4,D2*%
%TO.N,/WiFi_BUTTON*%
X117600000Y-62660000D03*
%TO.P,U1,5,D4*%
%TO.N,/POWER_BUTTON*%
X117600000Y-65200000D03*
%TO.P,U1,6,RX2*%
%TO.N,/LCD_RST*%
X117600000Y-67740000D03*
%TO.P,U1,7,TX2*%
%TO.N,/LCD_DC*%
X117600000Y-70280000D03*
%TO.P,U1,8,D5*%
%TO.N,/LCD_CS*%
X117600000Y-72820000D03*
%TO.P,U1,9,D18*%
%TO.N,/LCD_CLK*%
X117600000Y-75360000D03*
%TO.P,U1,10,D19*%
%TO.N,/A_3*%
X117600000Y-77900000D03*
%TO.P,U1,11,D21*%
%TO.N,/DHT_SDA*%
X117600000Y-80440000D03*
%TO.P,U1,12,RX0*%
%TO.N,/B_1*%
X117600000Y-82980000D03*
%TO.P,U1,13,TX0*%
%TO.N,/B_2*%
X117600000Y-85520000D03*
%TO.P,U1,14,D22*%
%TO.N,/DHT_SCL*%
X117600000Y-88060000D03*
%TO.P,U1,15,D23*%
%TO.N,/LCD_MOSI*%
X117600000Y-90600000D03*
%TO.P,U1,16,EN*%
%TO.N,unconnected-(U1-EN-Pad16)*%
X143000000Y-90600000D03*
%TO.P,U1,17,VP*%
%TO.N,unconnected-(U1-VP-Pad17)*%
X143000000Y-88060000D03*
%TO.P,U1,18,VN*%
%TO.N,unconnected-(U1-VN-Pad18)*%
X143000000Y-85520000D03*
%TO.P,U1,19,D34*%
%TO.N,/B_4*%
X143000000Y-82980000D03*
%TO.P,U1,20,D35*%
%TO.N,/B_3*%
X143000000Y-80440000D03*
%TO.P,U1,21,D32*%
%TO.N,/PUMP_1*%
X143000000Y-77900000D03*
%TO.P,U1,22,D33*%
%TO.N,/PUMP_2*%
X143000000Y-75360000D03*
%TO.P,U1,23,D25*%
%TO.N,/LED_PIN*%
X143000000Y-72820000D03*
%TO.P,U1,24,D26*%
%TO.N,/FAN*%
X143000000Y-70280000D03*
%TO.P,U1,25,D27*%
%TO.N,/MISTER*%
X143000000Y-67740000D03*
%TO.P,U1,26,D14*%
%TO.N,/WATER_LEV*%
X143000000Y-65200000D03*
%TO.P,U1,27,D12*%
%TO.N,/MISC_BUTTON*%
X143000000Y-62660000D03*
%TO.P,U1,28,D13*%
%TO.N,/A_1*%
X143000000Y-60120000D03*
%TO.P,U1,29,GND*%
%TO.N,GND*%
X143000000Y-57580000D03*
%TO.P,U1,30,VIN*%
%TO.N,VCC*%
X143000000Y-55040000D03*
%TD*%
D12*
%TO.P,PUMP_1,1,VCC*%
%TO.N,VCC*%
X152150000Y-88050000D03*
D13*
%TO.P,PUMP_1,2,GND*%
%TO.N,/PUMP_NEG_1*%
X152150000Y-90050000D03*
%TD*%
D12*
%TO.P,PUMP_2,1,VCC*%
%TO.N,VCC*%
X152400000Y-95300000D03*
D13*
%TO.P,PUMP_2,2,GND*%
%TO.N,/PUMP_NEG_2*%
X152400000Y-97300000D03*
%TD*%
D14*
%TO.P,LCD_1,1,VCC*%
%TO.N,VCC*%
X109175000Y-79910000D03*
D13*
%TO.P,LCD_1,2,GND*%
%TO.N,GND*%
X109175000Y-77910000D03*
D14*
%TO.P,LCD_1,3,SCK*%
%TO.N,/LCD_CLK*%
X109175000Y-72800000D03*
D13*
%TO.P,LCD_1,4,MISO*%
%TO.N,unconnected-(LCD_1-MISO-Pad4)*%
X109175000Y-70800000D03*
%TO.P,LCD_1,5,MOSI*%
%TO.N,/LCD_MOSI*%
X109175000Y-68800000D03*
%TO.P,LCD_1,6,CS*%
%TO.N,/LCD_CS*%
X109175000Y-66800000D03*
%TO.P,LCD_1,7,DC*%
%TO.N,/LCD_DC*%
X109175000Y-64800000D03*
%TO.P,LCD_1,8,RST*%
%TO.N,/LCD_RST*%
X109175000Y-62800000D03*
%TD*%
D19*
%TO.N,GND*%
X135600000Y-67600000D03*
X135600000Y-57400000D03*
X135600000Y-65400000D03*
X135600000Y-61600000D03*
%TO.N,/DHT_SCL*%
X114739600Y-86751900D03*
%TO.N,/DHT_SDA*%
X114777500Y-81396900D03*
%TO.N,/LED_PIN*%
X146843300Y-70782000D03*
%TO.N,/FAN_NEG*%
X132448400Y-73997300D03*
X146415000Y-74762000D03*
%TO.N,Net-(Q1-G)*%
X135350000Y-69766600D03*
X126049200Y-69766600D03*
%TO.N,/FAN*%
X130216400Y-81430700D03*
%TO.N,/MISTER_NEG*%
X114777500Y-74413000D03*
X130484600Y-71906100D03*
%TO.N,/MISTER*%
X128803200Y-74827800D03*
%TO.N,/PUMP_NEG_1*%
X130572800Y-79507600D03*
X146415000Y-80258900D03*
%TO.N,/PUMP_NEG_2*%
X127296500Y-91999500D03*
%TO.N,Net-(Q4-G)*%
X134886100Y-84893700D03*
X126998300Y-82864100D03*
%TO.N,/PUMP_1*%
X133293800Y-79282200D03*
%TO.N,/POWER_BUTTON*%
X140973400Y-68707800D03*
%TO.N,/MISC_BUTTON*%
X115385000Y-75858000D03*
%TD*%
D20*
%TO.N,GND*%
X116599000Y-52796500D02*
X110600000Y-46797500D01*
X152125000Y-64850000D02*
X155079000Y-64850000D01*
X109125000Y-103850000D02*
X108650000Y-103850000D01*
X107079000Y-86850000D02*
X106829000Y-86600000D01*
X152025000Y-76100000D02*
X155129000Y-76100000D01*
D21*
X150450000Y-48297500D02*
X141702000Y-48297500D01*
D20*
X116599000Y-56579000D02*
X116599000Y-52796500D01*
X155079000Y-64850000D02*
X155229000Y-65000000D01*
D21*
X135600000Y-61600000D02*
X135600000Y-65400000D01*
X106829000Y-77800000D02*
X106829000Y-86600000D01*
X106829000Y-49887700D02*
X106829000Y-55800000D01*
X155229000Y-65000000D02*
X155229000Y-76000000D01*
X106829000Y-55800000D02*
X106829000Y-77800000D01*
X155229000Y-51167300D02*
X155229000Y-65000000D01*
D20*
X109175000Y-77910000D02*
X106939000Y-77910000D01*
D21*
X109919000Y-46797500D02*
X106829000Y-49887700D01*
X150450000Y-48297500D02*
X152359000Y-48297500D01*
X152359000Y-48297500D02*
X155229000Y-51167300D01*
D20*
X135780000Y-57580000D02*
X135600000Y-57400000D01*
X152325000Y-106450000D02*
X154379000Y-106450000D01*
X108650000Y-103850000D02*
X107000000Y-102200000D01*
D21*
X141702000Y-48297500D02*
X135600000Y-54400000D01*
X135600000Y-57400000D02*
X135600000Y-61600000D01*
X135600000Y-54400000D02*
X135600000Y-57400000D01*
X106829000Y-86600000D02*
X106829000Y-102029000D01*
D20*
X117600000Y-57580000D02*
X135420000Y-57580000D01*
X155129000Y-76100000D02*
X155229000Y-76000000D01*
X106939000Y-77910000D02*
X106829000Y-77800000D01*
D21*
X110600000Y-46797500D02*
X109919000Y-46797500D01*
D20*
X143000000Y-57580000D02*
X135780000Y-57580000D01*
D21*
X106829000Y-102029000D02*
X107000000Y-102200000D01*
D20*
X109375000Y-86850000D02*
X107079000Y-86850000D01*
D21*
X155229000Y-76000000D02*
X155229000Y-105600000D01*
D20*
X117600000Y-57580000D02*
X116599000Y-56579000D01*
X154379000Y-106450000D02*
X155229000Y-105600000D01*
D21*
X135600000Y-65400000D02*
X135600000Y-67600000D01*
D20*
X135420000Y-57580000D02*
X135600000Y-57400000D01*
X109225000Y-55800000D02*
X106829000Y-55800000D01*
%TO.N,/DHT_SCL*%
X116291900Y-86751900D02*
X114739600Y-86751900D01*
X117600000Y-88060000D02*
X116291900Y-86751900D01*
D21*
%TO.N,VCC*%
X110600000Y-50757500D02*
X113000000Y-53157500D01*
D20*
X148750000Y-62850000D02*
X148600000Y-63000000D01*
D21*
X148600000Y-54107500D02*
X148600000Y-63000000D01*
X113000000Y-81710000D02*
X113000000Y-90600000D01*
D20*
X152125000Y-62850000D02*
X148750000Y-62850000D01*
D21*
X145782000Y-52257500D02*
X143000000Y-55040000D01*
X113000000Y-90600000D02*
X113000000Y-96400000D01*
X150450000Y-52257500D02*
X145782000Y-52257500D01*
X113000000Y-53157500D02*
X113000000Y-79800000D01*
D20*
X128225100Y-81948600D02*
X113238600Y-81948600D01*
X113238600Y-81948600D02*
X113000000Y-81710000D01*
X152025000Y-72100000D02*
X148900000Y-72100000D01*
D21*
X113000000Y-79800000D02*
X113000000Y-81710000D01*
X148600000Y-63000000D02*
X148600000Y-72400000D01*
D20*
X148600000Y-84250000D02*
X130526500Y-84250000D01*
D21*
X148600000Y-84250000D02*
X148600000Y-88200000D01*
X148600000Y-72400000D02*
X148600000Y-81800000D01*
D20*
X109175000Y-79910000D02*
X112890000Y-79910000D01*
X148900000Y-72100000D02*
X148600000Y-72400000D01*
D21*
X150450000Y-52257500D02*
X148600000Y-54107500D01*
D20*
X149300000Y-81100000D02*
X148600000Y-81800000D01*
X109375000Y-90850000D02*
X112750000Y-90850000D01*
X109375000Y-98600000D02*
X110800000Y-98600000D01*
X148750000Y-88050000D02*
X148600000Y-88200000D01*
X110800000Y-98600000D02*
X113000000Y-96400000D01*
X112750000Y-90850000D02*
X113000000Y-90600000D01*
X152400000Y-95300000D02*
X149100000Y-95300000D01*
X152150000Y-88050000D02*
X148750000Y-88050000D01*
D21*
X148600000Y-81800000D02*
X148600000Y-84250000D01*
X148600000Y-88200000D02*
X148600000Y-94800000D01*
D20*
X149100000Y-95300000D02*
X148600000Y-94800000D01*
X152150000Y-81100000D02*
X149300000Y-81100000D01*
X112890000Y-79910000D02*
X113000000Y-79800000D01*
X130526500Y-84250000D02*
X128225100Y-81948600D01*
%TO.N,/DHT_SDA*%
X115734400Y-80440000D02*
X114777500Y-81396900D01*
X117600000Y-80440000D02*
X115734400Y-80440000D01*
%TO.N,/LED_PIN*%
X144805300Y-72820000D02*
X146843300Y-70782000D01*
X143000000Y-72820000D02*
X144805300Y-72820000D01*
%TO.N,/FAN_NEG*%
X146415000Y-74762000D02*
X144780500Y-76396500D01*
X134847600Y-76396500D02*
X132448400Y-73997300D01*
X144780500Y-76396500D02*
X134847600Y-76396500D01*
%TO.N,Net-(Q1-G)*%
X126049200Y-69766600D02*
X135350000Y-69766600D01*
%TO.N,/FAN*%
X132214900Y-73412700D02*
X130021100Y-75606500D01*
X143000000Y-70280000D02*
X139867300Y-73412700D01*
X139867300Y-73412700D02*
X132214900Y-73412700D01*
X129839200Y-81807900D02*
X130216400Y-81430700D01*
X130021100Y-81235400D02*
X130216400Y-81430700D01*
X130216400Y-81430700D02*
X130237200Y-81430700D01*
X130237200Y-81430700D02*
X130216400Y-81430700D01*
X130021100Y-75606500D02*
X130021100Y-81235400D01*
X130216400Y-81430700D02*
X129839200Y-81807900D01*
%TO.N,/MISTER_NEG*%
X130394000Y-71815500D02*
X117122900Y-71815500D01*
X130484600Y-71906100D02*
X130394000Y-71815500D01*
X114777500Y-74160900D02*
X114777500Y-74413000D01*
X117122900Y-71815500D02*
X114777500Y-74160900D01*
X114777500Y-74413000D02*
X114777500Y-74350000D01*
X114777500Y-74350000D02*
X114777500Y-74413000D01*
%TO.N,/MISTER*%
X131715300Y-73061000D02*
X129948500Y-74827800D01*
X143000000Y-68042500D02*
X137981500Y-73061000D01*
X137981500Y-73061000D02*
X131715300Y-73061000D01*
X143000000Y-67740000D02*
X143000000Y-68042500D01*
X129948500Y-74827800D02*
X128803200Y-74827800D01*
%TO.N,/B_2*%
X117600000Y-85520000D02*
X131580000Y-99500000D01*
X131580000Y-99500000D02*
X138000000Y-99500000D01*
%TO.N,/B_1*%
X133016900Y-98500000D02*
X117600000Y-83083100D01*
X138000000Y-98500000D02*
X133016900Y-98500000D01*
X117600000Y-83083100D02*
X117600000Y-82980000D01*
%TO.N,/PUMP_NEG_1*%
X145537700Y-79381600D02*
X142184100Y-79381600D01*
X142184100Y-79381600D02*
X141665000Y-79900700D01*
X141665000Y-79900700D02*
X130965900Y-79900700D01*
X146415000Y-80258900D02*
X146415000Y-79381600D01*
X146415000Y-79381600D02*
X146415000Y-80258900D01*
X146415000Y-80258900D02*
X145537700Y-79381600D01*
X130965900Y-79900700D02*
X130572800Y-79507600D01*
%TO.N,/PUMP_NEG_2*%
X152400000Y-97300000D02*
X132597000Y-97300000D01*
X132597000Y-97300000D02*
X127296500Y-91999500D01*
%TO.N,Net-(Q4-G)*%
X126998300Y-82864100D02*
X129027900Y-84893700D01*
X129027900Y-84893700D02*
X134886100Y-84893700D01*
%TO.N,/PUMP_1*%
X141617800Y-79282200D02*
X143000000Y-77900000D01*
X133293800Y-79282200D02*
X141617800Y-79282200D01*
X133293800Y-79282200D02*
X133293700Y-79282200D01*
X133293700Y-79282200D02*
X133293800Y-79282200D01*
%TO.N,/POWER_BUTTON*%
X121553300Y-69153300D02*
X117600000Y-65200000D01*
X140973400Y-68707800D02*
X140527900Y-69153300D01*
X140527900Y-69153300D02*
X121553300Y-69153300D01*
%TO.N,/MISC_BUTTON*%
X137810900Y-72709300D02*
X131363700Y-72709300D01*
X117153000Y-74090000D02*
X115385000Y-75858000D01*
X129983000Y-74090000D02*
X117153000Y-74090000D01*
X141964100Y-63695900D02*
X141964100Y-68556100D01*
X143000000Y-62660000D02*
X141964100Y-63695900D01*
X131363700Y-72709300D02*
X129983000Y-74090000D01*
X141964100Y-68556100D02*
X137810900Y-72709300D01*
%TD*%
M02*
