M48
; DRILL file {KiCad 9.0.4} date 2026-02-13T22:22:25-0500
; FORMAT={-:-/ absolute / metric / decimal}
; #@! TF.CreationDate,2026-02-13T22:22:25-05:00
; #@! TF.GenerationSoftware,Kicad,Pcbnew,9.0.4
; #@! TF.FileFunction,Plated,1,2,PTH
FMAT,2
METRIC
; #@! TA.AperFunction,Plated,PTH,ViaDrill
T1C0.300
; #@! TA.AperFunction,Plated,PTH,ComponentDrill
T2C0.500
; #@! TA.AperFunction,Plated,PTH,ComponentDrill
T3C0.750
; #@! TA.AperFunction,Plated,PTH,ComponentDrill
T4C0.900
; #@! TA.AperFunction,Plated,PTH,ComponentDrill
T5C1.700
%
G90
G05
T1
X114.74Y-86.752
X114.777Y-74.413
X114.777Y-81.397
X115.385Y-75.858
X126.049Y-69.767
X126.998Y-82.864
X127.296Y-91.999
X128.803Y-74.828
X130.216Y-81.431
X130.485Y-71.906
X130.573Y-79.508
X132.448Y-73.997
X133.294Y-79.282
X134.886Y-84.894
X135.35Y-69.767
X135.6Y-57.4
X135.6Y-61.6
X135.6Y-65.4
X135.6Y-67.6
X140.973Y-68.708
X146.415Y-74.762
X146.415Y-80.259
X146.843Y-70.782
T2
X124.5Y-98.5
X124.5Y-99.5
X124.5Y-100.5
X138.0Y-98.5
X138.0Y-99.5
X138.0Y-100.5
X138.0Y-101.5
T3
X109.125Y-103.85
X109.125Y-105.85
X109.175Y-62.8
X109.175Y-64.8
X109.175Y-66.8
X109.175Y-68.8
X109.175Y-70.8
X109.175Y-72.8
X109.175Y-77.91
X109.175Y-79.91
X109.225Y-55.8
X109.225Y-57.8
X109.375Y-84.85
X109.375Y-86.85
X109.375Y-88.85
X109.375Y-90.85
X109.375Y-96.6
X109.375Y-98.6
X152.025Y-72.1
X152.025Y-74.1
X152.025Y-76.1
X152.125Y-62.85
X152.125Y-64.85
X152.125Y-66.85
X152.15Y-81.1
X152.15Y-83.1
X152.15Y-88.05
X152.15Y-90.05
X152.325Y-104.45
X152.325Y-106.45
X152.4Y-95.3
X152.4Y-97.3
T4
X117.6Y-55.04
X117.6Y-57.58
X117.6Y-60.12
X117.6Y-62.66
X117.6Y-65.2
X117.6Y-67.74
X117.6Y-70.28
X117.6Y-72.82
X117.6Y-75.36
X117.6Y-77.9
X117.6Y-80.44
X117.6Y-82.98
X117.6Y-85.52
X117.6Y-88.06
X117.6Y-90.6
X143.0Y-55.04
X143.0Y-57.58
X143.0Y-60.12
X143.0Y-62.66
X143.0Y-65.2
X143.0Y-67.74
X143.0Y-70.28
X143.0Y-72.82
X143.0Y-75.36
X143.0Y-77.9
X143.0Y-80.44
X143.0Y-82.98
X143.0Y-85.52
X143.0Y-88.06
X143.0Y-90.6
T5
X110.6Y-46.797
X110.6Y-50.758
X150.45Y-48.297
X150.45Y-52.258
M30
