%TF.GenerationSoftware,KiCad,Pcbnew,9.0.4*%
%TF.CreationDate,2026-02-13T22:22:27-05:00*%
%TF.ProjectId,Beta,42657461-2e6b-4696-9361-645f70636258,rev?*%
%TF.SameCoordinates,Original*%
%TF.FileFunction,Soldermask,Bot*%
%TF.FilePolarity,Negative*%
%FSLAX46Y46*%
G04 Gerber Fmt 4.6, Leading zero omitted, Abs format (unit mm)*
G04 Created by KiCad (PCBNEW 9.0.4) date 2026-02-13 22:22:27*
%MOMM*%
%LPD*%
G01*
G04 APERTURE LIST*
G04 Aperture macros list*
%AMRoundRect*
0 Rectangle with rounded corners*
0 $1 Rounding radius*
0 $2 $3 $4 $5 $6 $7 $8 $9 X,Y pos of 4 corners*
0 Add a 4 corners polygon primitive as box body*
4,1,4,$2,$3,$4,$5,$6,$7,$8,$9,$2,$3,0*
0 Add four circle primitives for the rounded corners*
1,1,$1+$1,$2,$3*
1,1,$1+$1,$4,$5*
1,1,$1+$1,$6,$7*
1,1,$1+$1,$8,$9*
0 Add four rect primitives between the rounded corners*
20,1,$1+$1,$2,$3,$4,$5,0*
20,1,$1+$1,$4,$5,$6,$7,0*
20,1,$1+$1,$6,$7,$8,$9,0*
20,1,$1+$1,$8,$9,$2,$3,0*%
G04 Aperture macros list end*
%ADD10R,0.850000X0.850000*%
%ADD11C,0.850000*%
%ADD12RoundRect,0.250000X-0.625000X0.350000X-0.625000X-0.350000X0.625000X-0.350000X0.625000X0.350000X0*%
%ADD13O,1.750000X1.200000*%
%ADD14RoundRect,0.250000X0.625000X-0.350000X0.625000X0.350000X-0.625000X0.350000X-0.625000X-0.350000X0*%
%ADD15RoundRect,0.250001X1.099999X-1.099999X1.099999X1.099999X-1.099999X1.099999X-1.099999X-1.099999X0*%
%ADD16C,2.700000*%
%ADD17R,1.500000X1.500000*%
%ADD18C,1.500000*%
G04 APERTURE END LIST*
D10*
%TO.C,BUS_B1*%
X138000000Y-98500000D03*
D11*
X138000000Y-99500000D03*
X138000000Y-100500000D03*
X138000000Y-101500000D03*
%TD*%
D12*
%TO.C,WATER_1*%
X152125000Y-62850000D03*
D13*
X152125000Y-64850000D03*
X152125000Y-66850000D03*
%TD*%
D14*
%TO.C,MISTER_1*%
X109375000Y-98600000D03*
D13*
X109375000Y-96600000D03*
%TD*%
D15*
%TO.C,PWR1*%
X110600000Y-50757500D03*
D16*
X110600000Y-46797500D03*
%TD*%
D14*
%TO.C,WIFI1*%
X109225000Y-57800000D03*
D13*
X109225000Y-55800000D03*
%TD*%
D14*
%TO.C,DHT_1*%
X109375000Y-90850000D03*
D13*
X109375000Y-88850000D03*
X109375000Y-86850000D03*
X109375000Y-84850000D03*
%TD*%
D14*
%TO.C,MISC1*%
X109125000Y-105850000D03*
D13*
X109125000Y-103850000D03*
%TD*%
D12*
%TO.C,PWR_BUTTON1*%
X152325000Y-104450000D03*
D13*
X152325000Y-106450000D03*
%TD*%
D15*
%TO.C,PWR_DAISY1*%
X150450000Y-52257500D03*
D16*
X150450000Y-48297500D03*
%TD*%
D10*
%TO.C,BUS_A1*%
X124500000Y-98500000D03*
D11*
X124500000Y-99500000D03*
X124500000Y-100500000D03*
%TD*%
D12*
%TO.C,FAN1*%
X152150000Y-81100000D03*
D13*
X152150000Y-83100000D03*
%TD*%
D12*
%TO.C,LED_STRIP1*%
X152025000Y-72100000D03*
D13*
X152025000Y-74100000D03*
X152025000Y-76100000D03*
%TD*%
D17*
%TO.C,U1*%
X117600000Y-55040000D03*
D18*
X117600000Y-57580000D03*
X117600000Y-60120000D03*
X117600000Y-62660000D03*
X117600000Y-65200000D03*
X117600000Y-67740000D03*
X117600000Y-70280000D03*
X117600000Y-72820000D03*
X117600000Y-75360000D03*
X117600000Y-77900000D03*
X117600000Y-80440000D03*
X117600000Y-82980000D03*
X117600000Y-85520000D03*
X117600000Y-88060000D03*
X117600000Y-90600000D03*
X143000000Y-90600000D03*
X143000000Y-88060000D03*
X143000000Y-85520000D03*
X143000000Y-82980000D03*
X143000000Y-80440000D03*
X143000000Y-77900000D03*
X143000000Y-75360000D03*
X143000000Y-72820000D03*
X143000000Y-70280000D03*
X143000000Y-67740000D03*
X143000000Y-65200000D03*
X143000000Y-62660000D03*
X143000000Y-60120000D03*
X143000000Y-57580000D03*
X143000000Y-55040000D03*
%TD*%
D12*
%TO.C,PUMP_1*%
X152150000Y-88050000D03*
D13*
X152150000Y-90050000D03*
%TD*%
D12*
%TO.C,PUMP_2*%
X152400000Y-95300000D03*
D13*
X152400000Y-97300000D03*
%TD*%
D14*
%TO.C,LCD_1*%
X109175000Y-79910000D03*
D13*
X109175000Y-77910000D03*
D14*
X109175000Y-72800000D03*
D13*
X109175000Y-70800000D03*
X109175000Y-68800000D03*
X109175000Y-66800000D03*
X109175000Y-64800000D03*
X109175000Y-62800000D03*
%TD*%
M02*
