%TF.GenerationSoftware,KiCad,Pcbnew,9.0.4*%
%TF.CreationDate,2026-02-13T22:22:27-05:00*%
%TF.ProjectId,Beta,42657461-2e6b-4696-9361-645f70636258,rev?*%
%TF.SameCoordinates,Original*%
%TF.FileFunction,Copper,L1,Top*%
%TF.FilePolarity,Positive*%
%FSLAX46Y46*%
G04 Gerber Fmt 4.6, Leading zero omitted, Abs format (unit mm)*
G04 Created by KiCad (PCBNEW 9.0.4) date 2026-02-13 22:22:27*
%MOMM*%
%LPD*%
G01*
G04 APERTURE LIST*
G04 Aperture macros list*
%AMRoundRect*
0 Rectangle with rounded corners*
0 $1 Rounding radius*
0 $2 $3 $4 $5 $6 $7 $8 $9 X,Y pos of 4 corners*
0 Add a 4 corners polygon primitive as box body*
4,1,4,$2,$3,$4,$5,$6,$7,$8,$9,$2,$3,0*
0 Add four circle primitives for the rounded corners*
1,1,$1+$1,$2,$3*
1,1,$1+$1,$4,$5*
1,1,$1+$1,$6,$7*
1,1,$1+$1,$8,$9*
0 Add four rect primitives between the rounded corners*
20,1,$1+$1,$2,$3,$4,$5,0*
20,1,$1+$1,$4,$5,$6,$7,0*
20,1,$1+$1,$6,$7,$8,$9,0*
20,1,$1+$1,$8,$9,$2,$3,0*%
G04 Aperture macros list end*
%TA.AperFunction,ComponentPad*%
%ADD10R,0.850000X0.850000*%
%TD*%
%TA.AperFunction,ComponentPad*%
%ADD11C,0.850000*%
%TD*%
%TA.AperFunction,ComponentPad*%
%ADD12RoundRect,0.250000X-0.625000X0.350000X-0.625000X-0.350000X0.625000X-0.350000X0.625000X0.350000X0*%
%TD*%
%TA.AperFunction,ComponentPad*%
%ADD13O,1.750000X1.200000*%
%TD*%
%TA.AperFunction,ComponentPad*%
%ADD14RoundRect,0.250000X0.625000X-0.350000X0.625000X0.350000X-0.625000X0.350000X-0.625000X-0.350000X0*%
%TD*%
%TA.AperFunction,SMDPad,CuDef*%
%ADD15RoundRect,0.135000X0.185000X-0.135000X0.185000X0.135000X-0.185000X0.135000X-0.185000X-0.135000X0*%
%TD*%
%TA.AperFunction,SMDPad,CuDef*%
%ADD16RoundRect,0.225000X-0.375000X0.225000X-0.375000X-0.225000X0.375000X-0.225000X0.375000X0.225000X0*%
%TD*%
%TA.AperFunction,SMDPad,CuDef*%
%ADD17RoundRect,0.135000X-0.135000X-0.185000X0.135000X-0.185000X0.135000X0.185000X-0.135000X0.185000X0*%
%TD*%
%TA.AperFunction,ComponentPad*%
%ADD18RoundRect,0.250001X1.099999X-1.099999X1.099999X1.099999X-1.099999X1.099999X-1.099999X-1.099999X0*%
%TD*%
%TA.AperFunction,ComponentPad*%
%ADD19C,2.700000*%
%TD*%
%TA.AperFunction,SMDPad,CuDef*%
%ADD20RoundRect,0.140000X0.140000X0.170000X-0.140000X0.170000X-0.140000X-0.170000X0.140000X-0.170000X0*%
%TD*%
%TA.AperFunction,SMDPad,CuDef*%
%ADD21RoundRect,0.135000X0.135000X0.185000X-0.135000X0.185000X-0.135000X-0.185000X0.135000X-0.185000X0*%
%TD*%
%TA.AperFunction,SMDPad,CuDef*%
%ADD22RoundRect,0.150000X-0.587500X-0.150000X0.587500X-0.150000X0.587500X0.150000X-0.587500X0.150000X0*%
%TD*%
%TA.AperFunction,ComponentPad*%
%ADD23R,1.500000X1.500000*%
%TD*%
%TA.AperFunction,ComponentPad*%
%ADD24C,1.500000*%
%TD*%
%TA.AperFunction,ViaPad*%
%ADD25C,0.600000*%
%TD*%
%TA.AperFunction,Conductor*%
%ADD26C,0.200000*%
%TD*%
G04 APERTURE END LIST*
D10*
%TO.P,BUS_B1,1,Pin_1*%
%TO.N,/B_1*%
X138000000Y-98500000D03*
D11*
%TO.P,BUS_B1,2,Pin_2*%
%TO.N,/B_2*%
X138000000Y-99500000D03*
%TO.P,BUS_B1,3,Pin_3*%
%TO.N,/B_3*%
X138000000Y-100500000D03*
%TO.P,BUS_B1,4,Pin_4*%
%TO.N,/B_4*%
X138000000Y-101500000D03*
%TD*%
D12*
%TO.P,WATER_1,1,VCC*%
%TO.N,VCC*%
X152125000Y-62850000D03*
D13*
%TO.P,WATER_1,2,GND*%
%TO.N,GND*%
X152125000Y-64850000D03*
%TO.P,WATER_1,3,DOUT*%
%TO.N,/WATER_LEV*%
X152125000Y-66850000D03*
%TD*%
D14*
%TO.P,MISTER_1,1,VCC*%
%TO.N,VCC*%
X109375000Y-98600000D03*
D13*
%TO.P,MISTER_1,2,GND*%
%TO.N,/MISTER_NEG*%
X109375000Y-96600000D03*
%TD*%
D15*
%TO.P,R7,1*%
%TO.N,Net-(Q4-G)*%
X135000000Y-88500000D03*
%TO.P,R7,2*%
%TO.N,/PUMP_2*%
X135000000Y-87480000D03*
%TD*%
D16*
%TO.P,D1,1,K*%
%TO.N,VCC*%
X123000000Y-55000000D03*
%TO.P,D1,2,A*%
%TO.N,/PUMP_NEG_2*%
X123000000Y-58300000D03*
%TD*%
D17*
%TO.P,R2,1*%
%TO.N,GND*%
X137290000Y-75400000D03*
%TO.P,R2,2*%
%TO.N,Net-(Q1-G)*%
X138310000Y-75400000D03*
%TD*%
D18*
%TO.P,PWR1,1,Pin_1*%
%TO.N,VCC*%
X110600000Y-50757500D03*
D19*
%TO.P,PWR1,2,Pin_2*%
%TO.N,GND*%
X110600000Y-46797500D03*
%TD*%
D14*
%TO.P,WIFI1,1,1*%
%TO.N,/WiFi_BUTTON*%
X109225000Y-57800000D03*
D13*
%TO.P,WIFI1,2,2*%
%TO.N,GND*%
X109225000Y-55800000D03*
%TD*%
D20*
%TO.P,C1_0402_100nF1,1*%
%TO.N,GND*%
X152980000Y-56500000D03*
%TO.P,C1_0402_100nF1,2*%
%TO.N,VCC*%
X152020000Y-56500000D03*
%TD*%
D14*
%TO.P,DHT_1,1,VDD*%
%TO.N,VCC*%
X109375000Y-90850000D03*
D13*
%TO.P,DHT_1,2,SDA*%
%TO.N,/DHT_SDA*%
X109375000Y-88850000D03*
%TO.P,DHT_1,3,GND*%
%TO.N,GND*%
X109375000Y-86850000D03*
%TO.P,DHT_1,4,SCL*%
%TO.N,/DHT_SCL*%
X109375000Y-84850000D03*
%TD*%
D21*
%TO.P,R8,1*%
%TO.N,GND*%
X132400000Y-75400000D03*
%TO.P,R8,2*%
%TO.N,Net-(Q4-G)*%
X131380000Y-75400000D03*
%TD*%
D14*
%TO.P,MISC1,1,1*%
%TO.N,/MISC_BUTTON*%
X109125000Y-105850000D03*
D13*
%TO.P,MISC1,2,2*%
%TO.N,GND*%
X109125000Y-103850000D03*
%TD*%
D22*
%TO.P,Q2,1,G*%
%TO.N,Net-(Q2-G)*%
X131000000Y-64600000D03*
%TO.P,Q2,2,D*%
%TO.N,/MISTER_NEG*%
X131000000Y-66500000D03*
%TO.P,Q2,3,S*%
%TO.N,GND*%
X132875000Y-65550000D03*
%TD*%
D12*
%TO.P,PWR_BUTTON1,1,1*%
%TO.N,/POWER_BUTTON*%
X152325000Y-104450000D03*
D13*
%TO.P,PWR_BUTTON1,2,2*%
%TO.N,GND*%
X152325000Y-106450000D03*
%TD*%
D18*
%TO.P,PWR_DAISY1,1,Pin_1*%
%TO.N,VCC*%
X150450000Y-52257500D03*
D19*
%TO.P,PWR_DAISY1,2,Pin_2*%
%TO.N,GND*%
X150450000Y-48297500D03*
%TD*%
D15*
%TO.P,R3,1*%
%TO.N,/FAN*%
X128990000Y-88500000D03*
%TO.P,R3,2*%
%TO.N,Net-(Q3-G)*%
X128990000Y-87480000D03*
%TD*%
D10*
%TO.P,BUS_A1,1,Pin_1*%
%TO.N,/A_1*%
X124500000Y-98500000D03*
D11*
%TO.P,BUS_A1,2,Pin_2*%
%TO.N,/A_2*%
X124500000Y-99500000D03*
%TO.P,BUS_A1,3,Pin_3*%
%TO.N,/A_3*%
X124500000Y-100500000D03*
%TD*%
D12*
%TO.P,FAN1,1,+*%
%TO.N,VCC*%
X152150000Y-81100000D03*
D13*
%TO.P,FAN1,2,-*%
%TO.N,/FAN_NEG*%
X152150000Y-83100000D03*
%TD*%
D22*
%TO.P,Q3,1,G*%
%TO.N,Net-(Q3-G)*%
X131000000Y-69100000D03*
%TO.P,Q3,2,D*%
%TO.N,/FAN_NEG*%
X131000000Y-71000000D03*
%TO.P,Q3,3,S*%
%TO.N,GND*%
X132875000Y-70050000D03*
%TD*%
D12*
%TO.P,LED_STRIP1,1,VCC*%
%TO.N,VCC*%
X152025000Y-72100000D03*
D13*
%TO.P,LED_STRIP1,2,DIN*%
%TO.N,/LED_PIN*%
X152025000Y-74100000D03*
%TO.P,LED_STRIP1,3,GND*%
%TO.N,GND*%
X152025000Y-76100000D03*
%TD*%
D22*
%TO.P,Q1,1,G*%
%TO.N,Net-(Q1-G)*%
X130875000Y-60650000D03*
%TO.P,Q1,2,D*%
%TO.N,/PUMP_NEG_1*%
X130875000Y-62550000D03*
%TO.P,Q1,3,S*%
%TO.N,GND*%
X132750000Y-61600000D03*
%TD*%
D21*
%TO.P,R6,1*%
%TO.N,GND*%
X132420000Y-79000000D03*
%TO.P,R6,2*%
%TO.N,Net-(Q2-G)*%
X131400000Y-79000000D03*
%TD*%
D22*
%TO.P,Q4,1,G*%
%TO.N,Net-(Q4-G)*%
X130875000Y-56650000D03*
%TO.P,Q4,2,D*%
%TO.N,/PUMP_NEG_2*%
X130875000Y-58550000D03*
%TO.P,Q4,3,S*%
%TO.N,GND*%
X132750000Y-57600000D03*
%TD*%
D21*
%TO.P,R4,1*%
%TO.N,Net-(Q3-G)*%
X138200000Y-78800000D03*
%TO.P,R4,2*%
%TO.N,GND*%
X137180000Y-78800000D03*
%TD*%
D15*
%TO.P,R5,1*%
%TO.N,Net-(Q2-G)*%
X125990000Y-84980000D03*
%TO.P,R5,2*%
%TO.N,/MISTER*%
X125990000Y-83960000D03*
%TD*%
D23*
%TO.P,U1,1,3V3*%
%TO.N,unconnected-(U1-3V3-Pad1)*%
X117600000Y-55040000D03*
D24*
%TO.P,U1,2,GND*%
%TO.N,GND*%
X117600000Y-57580000D03*
%TO.P,U1,3,D15*%
%TO.N,/A_2*%
X117600000Y-60120000D03*
%TO.P,U1,4,D2*%
%TO.N,/WiFi_BUTTON*%
X117600000Y-62660000D03*
%TO.P,U1,5,D4*%
%TO.N,/POWER_BUTTON*%
X117600000Y-65200000D03*
%TO.P,U1,6,RX2*%
%TO.N,/LCD_RST*%
X117600000Y-67740000D03*
%TO.P,U1,7,TX2*%
%TO.N,/LCD_DC*%
X117600000Y-70280000D03*
%TO.P,U1,8,D5*%
%TO.N,/LCD_CS*%
X117600000Y-72820000D03*
%TO.P,U1,9,D18*%
%TO.N,/LCD_CLK*%
X117600000Y-75360000D03*
%TO.P,U1,10,D19*%
%TO.N,/A_3*%
X117600000Y-77900000D03*
%TO.P,U1,11,D21*%
%TO.N,/DHT_SDA*%
X117600000Y-80440000D03*
%TO.P,U1,12,RX0*%
%TO.N,/B_1*%
X117600000Y-82980000D03*
%TO.P,U1,13,TX0*%
%TO.N,/B_2*%
X117600000Y-85520000D03*
%TO.P,U1,14,D22*%
%TO.N,/DHT_SCL*%
X117600000Y-88060000D03*
%TO.P,U1,15,D23*%
%TO.N,/LCD_MOSI*%
X117600000Y-90600000D03*
%TO.P,U1,16,EN*%
%TO.N,unconnected-(U1-EN-Pad16)*%
X143000000Y-90600000D03*
%TO.P,U1,17,VP*%
%TO.N,unconnected-(U1-VP-Pad17)*%
X143000000Y-88060000D03*
%TO.P,U1,18,VN*%
%TO.N,unconnected-(U1-VN-Pad18)*%
X143000000Y-85520000D03*
%TO.P,U1,19,D34*%
%TO.N,/B_4*%
X143000000Y-82980000D03*
%TO.P,U1,20,D35*%
%TO.N,/B_3*%
X143000000Y-80440000D03*
%TO.P,U1,21,D32*%
%TO.N,/PUMP_1*%
X143000000Y-77900000D03*
%TO.P,U1,22,D33*%
%TO.N,/PUMP_2*%
X143000000Y-75360000D03*
%TO.P,U1,23,D25*%
%TO.N,/LED_PIN*%
X143000000Y-72820000D03*
%TO.P,U1,24,D26*%
%TO.N,/FAN*%
X143000000Y-70280000D03*
%TO.P,U1,25,D27*%
%TO.N,/MISTER*%
X143000000Y-67740000D03*
%TO.P,U1,26,D14*%
%TO.N,/WATER_LEV*%
X143000000Y-65200000D03*
%TO.P,U1,27,D12*%
%TO.N,/MISC_BUTTON*%
X143000000Y-62660000D03*
%TO.P,U1,28,D13*%
%TO.N,/A_1*%
X143000000Y-60120000D03*
%TO.P,U1,29,GND*%
%TO.N,GND*%
X143000000Y-57580000D03*
%TO.P,U1,30,VIN*%
%TO.N,VCC*%
X143000000Y-55040000D03*
%TD*%
D15*
%TO.P,R1,1*%
%TO.N,Net-(Q1-G)*%
X131990000Y-84980000D03*
%TO.P,R1,2*%
%TO.N,/PUMP_1*%
X131990000Y-83960000D03*
%TD*%
D12*
%TO.P,PUMP_1,1,VCC*%
%TO.N,VCC*%
X152150000Y-88050000D03*
D13*
%TO.P,PUMP_1,2,GND*%
%TO.N,/PUMP_NEG_1*%
X152150000Y-90050000D03*
%TD*%
D12*
%TO.P,PUMP_2,1,VCC*%
%TO.N,VCC*%
X152400000Y-95300000D03*
D13*
%TO.P,PUMP_2,2,GND*%
%TO.N,/PUMP_NEG_2*%
X152400000Y-97300000D03*
%TD*%
D14*
%TO.P,LCD_1,1,VCC*%
%TO.N,VCC*%
X109175000Y-79910000D03*
D13*
%TO.P,LCD_1,2,GND*%
%TO.N,GND*%
X109175000Y-77910000D03*
D14*
%TO.P,LCD_1,3,SCK*%
%TO.N,/LCD_CLK*%
X109175000Y-72800000D03*
D13*
%TO.P,LCD_1,4,MISO*%
%TO.N,unconnected-(LCD_1-MISO-Pad4)*%
X109175000Y-70800000D03*
%TO.P,LCD_1,5,MOSI*%
%TO.N,/LCD_MOSI*%
X109175000Y-68800000D03*
%TO.P,LCD_1,6,CS*%
%TO.N,/LCD_CS*%
X109175000Y-66800000D03*
%TO.P,LCD_1,7,DC*%
%TO.N,/LCD_DC*%
X109175000Y-64800000D03*
%TO.P,LCD_1,8,RST*%
%TO.N,/LCD_RST*%
X109175000Y-62800000D03*
%TD*%
D25*
%TO.N,GND*%
X135600000Y-67600000D03*
X135600000Y-57400000D03*
X135600000Y-65400000D03*
X135600000Y-61600000D03*
%TO.N,/DHT_SCL*%
X114739600Y-86751900D03*
%TO.N,/DHT_SDA*%
X114777500Y-81396900D03*
%TO.N,/LED_PIN*%
X146843300Y-70782000D03*
%TO.N,/FAN_NEG*%
X132448400Y-73997300D03*
X146415000Y-74762000D03*
%TO.N,Net-(Q1-G)*%
X135350000Y-69766600D03*
X126049200Y-69766600D03*
%TO.N,/FAN*%
X130216400Y-81430700D03*
%TO.N,/MISTER_NEG*%
X114777500Y-74413000D03*
X130484600Y-71906100D03*
%TO.N,/MISTER*%
X128803200Y-74827800D03*
%TO.N,/PUMP_NEG_1*%
X130572800Y-79507600D03*
X146415000Y-80258900D03*
%TO.N,/PUMP_NEG_2*%
X127296500Y-91999500D03*
%TO.N,Net-(Q4-G)*%
X134886100Y-84893700D03*
X126998300Y-82864100D03*
%TO.N,/PUMP_1*%
X133293800Y-79282200D03*
%TO.N,/POWER_BUTTON*%
X140973400Y-68707800D03*
%TO.N,/MISC_BUTTON*%
X115385000Y-75858000D03*
%TD*%
D26*
%TO.N,GND*%
X135400000Y-57600000D02*
X135600000Y-57400000D01*
X133010800Y-74789200D02*
X133010800Y-70185800D01*
X152125000Y-64850000D02*
X152125000Y-63998300D01*
X137290000Y-74761500D02*
X138544500Y-74761500D01*
X138850300Y-77129700D02*
X137180000Y-78800000D01*
X152125000Y-63998300D02*
X152683900Y-63998300D01*
X153290200Y-63392000D02*
X153290200Y-56810200D01*
X132750000Y-61600000D02*
X135600000Y-61600000D01*
X132875000Y-70050000D02*
X135325000Y-67600000D01*
X132875000Y-65550000D02*
X135450000Y-65550000D01*
X135450000Y-65550000D02*
X135600000Y-65400000D01*
X137290000Y-69290000D02*
X137290000Y-74761500D01*
X132750000Y-57600000D02*
X135400000Y-57600000D01*
X135600000Y-67600000D02*
X137290000Y-69290000D01*
X132400000Y-75400000D02*
X133010800Y-74789200D01*
X137290000Y-74761500D02*
X137290000Y-75400000D01*
X133010800Y-70185800D02*
X132875000Y-70050000D01*
X132400000Y-78980000D02*
X132400000Y-75400000D01*
X152683900Y-63998300D02*
X153290200Y-63392000D01*
X138850300Y-75067300D02*
X138850300Y-77129700D01*
X135325000Y-67600000D02*
X135600000Y-67600000D01*
X153290200Y-56810200D02*
X152980000Y-56500000D01*
X138544500Y-74761500D02*
X138850300Y-75067300D01*
X132420000Y-79000000D02*
X132400000Y-78980000D01*
%TO.N,/DHT_SCL*%
X111744700Y-89746800D02*
X114739600Y-86751900D01*
X108203200Y-86447600D02*
X108203200Y-89159100D01*
X108949100Y-85701700D02*
X108203200Y-86447600D01*
X109375000Y-85701700D02*
X108949100Y-85701700D01*
X108790900Y-89746800D02*
X111744700Y-89746800D01*
X109375000Y-84850000D02*
X109375000Y-85701700D01*
X108203200Y-89159100D02*
X108790900Y-89746800D01*
%TO.N,VCC*%
X123000000Y-55000000D02*
X118758000Y-50757500D01*
X152125000Y-62850000D02*
X152020000Y-62745000D01*
X118758000Y-50757500D02*
X110600000Y-50757500D01*
X152020000Y-62745000D02*
X152020000Y-56500000D01*
%TO.N,/DHT_SDA*%
X114777500Y-82988300D02*
X109767500Y-87998300D01*
X114777500Y-81396900D02*
X114777500Y-82988300D01*
X109375000Y-88850000D02*
X109375000Y-87998300D01*
X109767500Y-87998300D02*
X109375000Y-87998300D01*
%TO.N,/LED_PIN*%
X146876000Y-70814700D02*
X146843300Y-70782000D01*
X146843300Y-70782000D02*
X146876000Y-70814700D01*
X149309600Y-73248300D02*
X146843300Y-70782000D01*
X152025000Y-74100000D02*
X152025000Y-73248300D01*
X152025000Y-73248300D02*
X149309600Y-73248300D01*
%TO.N,/FAN_NEG*%
X146415000Y-77073500D02*
X146415000Y-74762000D01*
X132448400Y-73997300D02*
X132448400Y-72448400D01*
X152150000Y-83100000D02*
X152150000Y-82248300D01*
X151589800Y-82248300D02*
X146415000Y-77073500D01*
X152150000Y-82248300D02*
X151589800Y-82248300D01*
X132448400Y-72448400D02*
X131000000Y-71000000D01*
%TO.N,Net-(Q1-G)*%
X135350000Y-74385400D02*
X137337300Y-76372700D01*
X136364600Y-80605400D02*
X131990000Y-84980000D01*
X138310000Y-75400000D02*
X137337300Y-76372700D01*
X126049200Y-65475800D02*
X126049200Y-69766600D01*
X135350000Y-69766600D02*
X135350000Y-74385400D01*
X137337300Y-76372700D02*
X136364600Y-77345400D01*
X130875000Y-60650000D02*
X126049200Y-65475800D01*
X136364600Y-77345400D02*
X136364600Y-80605400D01*
%TO.N,Net-(Q3-G)*%
X128990000Y-87480000D02*
X130380000Y-87480000D01*
X135777200Y-66991300D02*
X139203500Y-70417600D01*
X139203500Y-77796500D02*
X138200000Y-78800000D01*
X130380000Y-87480000D02*
X138200000Y-79660000D01*
X131000000Y-69100000D02*
X133108700Y-66991300D01*
X138200000Y-79660000D02*
X138200000Y-78800000D01*
X133108700Y-66991300D02*
X135777200Y-66991300D01*
X139203500Y-70417600D02*
X139203500Y-77796500D01*
%TO.N,/FAN*%
X130237200Y-81430700D02*
X130216400Y-81430700D01*
X129972000Y-81701400D02*
X129972000Y-81675100D01*
X130216400Y-81430700D02*
X129972000Y-81675100D01*
X130216400Y-81430700D02*
X130237200Y-81430700D01*
X129972000Y-81675100D02*
X130216400Y-81430700D01*
X128990000Y-88500000D02*
X128364900Y-87874900D01*
X130216400Y-81430700D02*
X129972000Y-81675100D01*
X129972000Y-81992600D02*
X129972000Y-81701400D01*
X128364900Y-87874900D02*
X128364900Y-83599700D01*
X128364900Y-83599700D02*
X129972000Y-81992600D01*
%TO.N,/LCD_DC*%
X117600000Y-70280000D02*
X112120000Y-64800000D01*
X112120000Y-64800000D02*
X109175000Y-64800000D01*
%TO.N,/LCD_RST*%
X117600000Y-67740000D02*
X112660000Y-62800000D01*
X112660000Y-62800000D02*
X109175000Y-62800000D01*
%TO.N,/LCD_CLK*%
X117600000Y-75360000D02*
X115040000Y-72800000D01*
X115040000Y-72800000D02*
X109175000Y-72800000D01*
%TO.N,/LCD_CS*%
X117600000Y-72820000D02*
X111580000Y-66800000D01*
X111580000Y-66800000D02*
X109175000Y-66800000D01*
%TO.N,/WiFi_BUTTON*%
X109225000Y-57800000D02*
X114085000Y-62660000D01*
X114085000Y-62660000D02*
X117600000Y-62660000D01*
%TO.N,/MISTER_NEG*%
X129993400Y-67506600D02*
X131000000Y-66500000D01*
X114777500Y-74350000D02*
X114777500Y-74413000D01*
X114777500Y-74413000D02*
X114777500Y-79844500D01*
X114777500Y-74413000D02*
X114777500Y-74350000D01*
X115385000Y-89738300D02*
X109375000Y-95748300D01*
X130484600Y-71906100D02*
X129993400Y-71414900D01*
X109375000Y-96600000D02*
X109375000Y-95748300D01*
X115385000Y-80452000D02*
X115385000Y-89738300D01*
X129993400Y-71414900D02*
X129993400Y-67506600D01*
X114777500Y-79844500D02*
X115385000Y-80452000D01*
%TO.N,/WATER_LEV*%
X144650000Y-66850000D02*
X143000000Y-65200000D01*
X152125000Y-66850000D02*
X144650000Y-66850000D01*
%TO.N,Net-(Q2-G)*%
X130434500Y-78034500D02*
X130434500Y-73638800D01*
X126238600Y-84980000D02*
X129620300Y-81598300D01*
X131400000Y-79460600D02*
X131400000Y-79000000D01*
X125990000Y-84980000D02*
X126238600Y-84980000D01*
X129254500Y-72458800D02*
X129254500Y-66345500D01*
X129620300Y-81240300D02*
X131400000Y-79460600D01*
X129254500Y-66345500D02*
X131000000Y-64600000D01*
X129620300Y-81598300D02*
X129620300Y-81240300D01*
X130434500Y-73638800D02*
X129254500Y-72458800D01*
X131400000Y-79000000D02*
X130434500Y-78034500D01*
%TO.N,/MISTER*%
X125990000Y-83960000D02*
X126725000Y-83960000D01*
X128803200Y-81881800D02*
X128803200Y-74827800D01*
X126725000Y-83960000D02*
X128803200Y-81881800D01*
%TO.N,/LCD_MOSI*%
X109175000Y-69651700D02*
X108749100Y-69651700D01*
X108020000Y-73382400D02*
X108332600Y-73695000D01*
X108020000Y-70380800D02*
X108020000Y-73382400D01*
X116219500Y-74985800D02*
X116219500Y-89219500D01*
X109175000Y-68800000D02*
X109175000Y-69651700D01*
X108332600Y-73695000D02*
X114928700Y-73695000D01*
X116219500Y-89219500D02*
X117600000Y-90600000D01*
X114928700Y-73695000D02*
X116219500Y-74985800D01*
X108749100Y-69651700D02*
X108020000Y-70380800D01*
%TO.N,/A_3*%
X121002100Y-81302100D02*
X121002100Y-97002100D01*
X121002100Y-97002100D02*
X124500000Y-100500000D01*
X117600000Y-77900000D02*
X121002100Y-81302100D01*
%TO.N,/B_3*%
X143000000Y-80440000D02*
X138729900Y-84710100D01*
X138729900Y-99770100D02*
X138000000Y-100500000D01*
X138729900Y-84710100D02*
X138729900Y-99770100D01*
%TO.N,/PUMP_NEG_1*%
X130875000Y-62550000D02*
X128902800Y-64522200D01*
X146415000Y-84022300D02*
X146415000Y-80258900D01*
X152150000Y-89198300D02*
X151591000Y-89198300D01*
X129748800Y-73872900D02*
X129748800Y-78683600D01*
X151591000Y-89198300D02*
X146415000Y-84022300D01*
X129748800Y-78683600D02*
X130572800Y-79507600D01*
X128902800Y-73026900D02*
X129748800Y-73872900D01*
X146415000Y-79381600D02*
X146415000Y-80258900D01*
X152150000Y-90050000D02*
X152150000Y-89198300D01*
X128902800Y-64522200D02*
X128902800Y-73026900D01*
X146415000Y-80258900D02*
X146415000Y-79381600D01*
%TO.N,/PUMP_NEG_2*%
X123250000Y-58550000D02*
X123000000Y-58300000D01*
X123000000Y-58300000D02*
X123000000Y-87703000D01*
X123000000Y-87703000D02*
X127296500Y-91999500D01*
X130875000Y-58550000D02*
X123250000Y-58550000D01*
%TO.N,Net-(Q4-G)*%
X134415700Y-85364100D02*
X134415700Y-87915700D01*
X130875000Y-57112500D02*
X130875000Y-56650000D01*
X129606200Y-66566800D02*
X130499100Y-65673900D01*
X131728800Y-61966200D02*
X131728800Y-61183700D01*
X126998300Y-65110000D02*
X130142100Y-61966200D01*
X131313600Y-65673900D02*
X132015600Y-64971900D01*
X126998300Y-82864100D02*
X126998300Y-65110000D01*
X134886100Y-84893700D02*
X134415700Y-85364100D01*
X131728800Y-61183700D02*
X131874300Y-61038200D01*
X129606200Y-71808100D02*
X129606200Y-66566800D01*
X131874300Y-61038200D02*
X131874300Y-58111800D01*
X132015600Y-62253000D02*
X131728800Y-61966200D01*
X131380000Y-75400000D02*
X131380000Y-73581900D01*
X130499100Y-65673900D02*
X131313600Y-65673900D01*
X131380000Y-73581900D02*
X129606200Y-71808100D01*
X132015600Y-64971900D02*
X132015600Y-62253000D01*
X131874300Y-58111800D02*
X130875000Y-57112500D01*
X130142100Y-61966200D02*
X131728800Y-61966200D01*
X134415700Y-87915700D02*
X135000000Y-88500000D01*
%TO.N,/PUMP_1*%
X133293700Y-79282200D02*
X133293800Y-79282200D01*
X133293700Y-82656300D02*
X133293700Y-79282200D01*
X133293800Y-79282200D02*
X133293700Y-79282200D01*
X131990000Y-83960000D02*
X133293700Y-82656300D01*
X133293700Y-79282200D02*
X133293800Y-79282200D01*
%TO.N,/PUMP_2*%
X135000000Y-87480000D02*
X139313700Y-83166300D01*
X139313700Y-79046300D02*
X143000000Y-75360000D01*
X139313700Y-83166300D02*
X139313700Y-79046300D01*
%TO.N,/POWER_BUTTON*%
X144786400Y-73179900D02*
X144786400Y-96911400D01*
X143156500Y-71550000D02*
X144786400Y-73179900D01*
X142773000Y-71550000D02*
X143156500Y-71550000D01*
X140973400Y-69750400D02*
X142773000Y-71550000D01*
X140973400Y-68707800D02*
X140973400Y-69750400D01*
X144786400Y-96911400D02*
X152325000Y-104450000D01*
%TO.N,/MISC_BUTTON*%
X115736700Y-76209700D02*
X115385000Y-75858000D01*
X109125000Y-105850000D02*
X115736700Y-99238300D01*
X115736700Y-99238300D02*
X115736700Y-76209700D01*
%TO.N,/A_1*%
X124500000Y-98500000D02*
X124500000Y-97823300D01*
X138838100Y-79017100D02*
X138838100Y-80161600D01*
X138838100Y-80161600D02*
X132340200Y-86659500D01*
X143000000Y-60120000D02*
X139810000Y-63310000D01*
X132340200Y-89983100D02*
X124500000Y-97823300D01*
X139810000Y-63310000D02*
X139810000Y-78045200D01*
X132340200Y-86659500D02*
X132340200Y-89983100D01*
X139810000Y-78045200D02*
X138838100Y-79017100D01*
%TO.N,/A_2*%
X122125000Y-64645000D02*
X117600000Y-60120000D01*
X122125000Y-97331000D02*
X122125000Y-64645000D01*
X124294000Y-99500000D02*
X122125000Y-97331000D01*
X124500000Y-99500000D02*
X124294000Y-99500000D01*
%TO.N,/B_4*%
X143000000Y-82980000D02*
X144044900Y-84024900D01*
X144044900Y-84024900D02*
X144044900Y-95455100D01*
X144044900Y-95455100D02*
X138000000Y-101500000D01*
%TD*%
M02*
